<?xml version="1.0" encoding="utf-8"?>
<!-- Generator: Adobe Illustrator 19.2.1, SVG Export Plug-In . SVG Version: 6.00 Build 0)  -->
<svg version="1.1" id="Layer_1" xmlns="http://www.w3.org/2000/svg" xmlns:xlink="http://www.w3.org/1999/xlink" x="0px" y="0px"
	 viewBox="0 0 300 130.6" style="enable-background:new 0 0 300 130.6;" xml:space="preserve">
<style type="text/css">
	.st0{opacity:0.5;fill:url(#SVGID_1_);}
	.st1{fill:none;stroke:#000000;stroke-miterlimit:10;}
	.st2{fill:#FFFFFF;}
	.st3{fill:#FFFFFF;stroke:#010101;stroke-miterlimit:10;}
	.st4{fill:none;stroke:#010101;stroke-miterlimit:10;}
	.st5{opacity:0.4;fill:#D1D3D4;stroke:#000000;stroke-width:0.5;stroke-miterlimit:10;}
	.st6{opacity:0.5;fill:#D1D3D4;stroke:#000000;stroke-width:0.5;stroke-miterlimit:10;}
	.st7{fill:none;stroke:#000000;stroke-width:0.5;stroke-miterlimit:10;}
	.st8{font-family:'STIXGeneral-Regular';}
	.st9{font-size:12px;}
	.st10{font-family:'STIXGeneral-BoldItalic';}
	.st11{font-family:'STIXGeneral-Bold';}
	.st12{fill:none;stroke:#000000;stroke-width:0.7;stroke-miterlimit:10;}
</style>
<linearGradient id="SVGID_1_" gradientUnits="userSpaceOnUse" x1="151.0795" y1="115.5187" x2="151.0795" y2="96.5998">
	<stop  offset="0.5304" style="stop-color:#FFFFFF"/>
	<stop  offset="1" style="stop-color:#000000"/>
</linearGradient>
<rect x="29.7" y="96.6" class="st0" width="242.8" height="18.9"/>
<line class="st1" x1="29.7" y1="95.3" x2="272.5" y2="95.6"/>
<rect x="99.5" y="71.7" class="st2" width="49.4" height="18.4"/>
<g>
	<ellipse class="st3" cx="122.2" cy="48.5" rx="2.7" ry="5.5"/>
	<line class="st4" x1="122" y1="54.4" x2="128.8" y2="75.8"/>
	<line class="st4" x1="128.8" y1="75.8" x2="163.2" y2="76.1"/>
	<line class="st4" x1="163.2" y1="71.9" x2="163.2" y2="76.1"/>
	<line class="st4" x1="124" y1="60.5" x2="135.7" y2="60.5"/>
	<line class="st4" x1="163.2" y1="71.9" x2="163.2" y2="76.1"/>
	<line class="st4" x1="124" y1="60.7" x2="135.7" y2="66.1"/>
</g>
<path class="st1" d="M117.7,57.7c1.7,21.6,13.6,20.7,32,20.7"/>
<polygon class="st5" points="187.5,94.3 94.9,94.3 83.9,79 210.5,79 "/>
<rect x="198.3" y="68" class="st6" width="16.2" height="11"/>
<rect x="80.3" y="68" class="st6" width="16.2" height="11"/>
<g>
	<line class="st7" x1="215.9" y1="68.2" x2="224.3" y2="68.2"/>
	<line class="st7" x1="215.9" y1="69.7" x2="231.3" y2="69.7"/>
	<line class="st7" x1="215.9" y1="71.2" x2="244.3" y2="71.2"/>
	<line class="st7" x1="216.9" y1="72.7" x2="255.3" y2="72.7"/>
	<line class="st7" x1="216.9" y1="74.2" x2="243.3" y2="74.2"/>
	<line class="st7" x1="216.9" y1="75.7" x2="230.3" y2="75.7"/>
	<line class="st7" x1="215.9" y1="77.2" x2="224.3" y2="77.2"/>
</g>
<g>
	<g>
		<line class="st7" x1="7.6" y1="79" x2="36.9" y2="79"/>
		<g>
			<path d="M36,79l-1.1-1.8l0.1,0l2.9,1.2c1,0.2,2,0.5,3.1,0.7c-1,0.2-2,0.5-3.1,0.7l-2.9,1.2l-0.1,0L36,79z"/>
		</g>
	</g>
</g>
<g>
	<text transform="matrix(1 0 0 1 27.6979 71.7206)" class="st8 st9">i</text>
	<g>
		<line class="st1" x1="26.2" y1="64.2" x2="29.2" y2="60.2"/>
		<line class="st1" x1="32.2" y1="64.2" x2="29.3" y2="60.2"/>
	</g>
</g>
<text transform="matrix(1 0 0 1 129.8546 89.0901)" class="st10 st9">m</text>
<text transform="matrix(0.583 0 0 0.583 139.1905 93.0862)" class="st10 st9">r</text>
<text transform="matrix(1 0 0 1 141.9122 89.0901)" class="st11 st9">(</text>
<text transform="matrix(1 0 0 1 145.9078 89.0901)" class="st10 st9">t</text>
<text transform="matrix(1 0 0 1 149.2437 89.0901)" class="st11 st9">)</text>
<g>
	<g>
		<line class="st12" x1="194.6" y1="42.9" x2="221.7" y2="42.9"/>
		<g>
			<path d="M220.5,42.9l-1.5-2.5l0.1-0.1l4.1,1.6c1.4,0.3,2.9,0.6,4.3,0.9c-1.4,0.3-2.9,0.6-4.3,0.9l-4.1,1.6l-0.1,0L220.5,42.9z"/>
		</g>
	</g>
</g>
<text transform="matrix(1 0 0 1 196.8546 33.0901)" class="st10 st9">v</text>
<text transform="matrix(0.583 0 0 0.583 202.1822 37.0862)" class="st10 st9">r</text>
<text transform="matrix(1 0 0 1 204.9039 33.0901)" class="st11 st9">(</text>
<text transform="matrix(1 0 0 1 208.8995 33.0901)" class="st10 st9">t</text>
<text transform="matrix(1 0 0 1 212.2359 33.0901)" class="st11 st9">)</text>
</svg>
