<?xml version="1.0" encoding="utf-8"?>
<!-- Generator: Adobe Illustrator 19.2.1, SVG Export Plug-In . SVG Version: 6.00 Build 0)  -->
<svg version="1.1" id="Layer_1" xmlns="http://www.w3.org/2000/svg" xmlns:xlink="http://www.w3.org/1999/xlink" x="0px" y="0px"
	 viewBox="0 0 347 89" style="enable-background:new 0 0 347 89;" xml:space="preserve">
<style type="text/css">
	.st0{fill:#ECEAE6;stroke:#000000;stroke-width:0.4;stroke-miterlimit:10;}
	.st1{fill:none;stroke:#000000;stroke-width:0.4;stroke-miterlimit:10;}
	.st2{fill:none;stroke:#000000;stroke-width:0.4;stroke-miterlimit:10;stroke-dasharray:3.3205,3.3205;}
	.st3{fill:none;stroke:#000000;stroke-width:0.47;stroke-miterlimit:10;}
	.st4{fill:#D1D3D4;stroke:#000000;stroke-width:0.2;stroke-miterlimit:10;}
	.st5{font-family:'STIXGeneral-BoldItalic';}
	.st6{font-size:12px;}
	.st7{font-size:10px;}
	.st8{font-family:'STIXGeneral-Bold';}
	.st9{fill:none;stroke:#000000;stroke-width:0.5;stroke-miterlimit:10;}
	.st10{fill:none;stroke:#000000;stroke-width:0.4;stroke-miterlimit:10;stroke-dasharray:2.6062,2.6062;}
	.st11{fill:none;stroke:#000000;stroke-width:0.8;stroke-miterlimit:10;}
	.st12{font-family:'STIXGeneral-Regular';}
	.st13{font-size:8px;}
</style>
<rect x="87.7" y="11.9" class="st0" width="146.6" height="4"/>
<rect x="87.7" y="71.9" class="st0" width="146.6" height="4"/>
<g>
	<g>
		<line class="st1" x1="74.6" y1="44.6" x2="76.1" y2="44.6"/>
		<line class="st2" x1="79.4" y1="44.6" x2="97.7" y2="44.7"/>
		<line class="st1" x1="99.4" y1="44.7" x2="100.9" y2="44.7"/>
	</g>
</g>
<g>
	<g>
		<line class="st1" x1="63.2" y1="70.2" x2="62.9" y2="47.9"/>
		<g>
			<path d="M63.2,69.5l-1.5-0.9l0,0l1,2.3c0.2,0.8,0.4,1.6,0.6,2.4c0.2-0.8,0.3-1.6,0.5-2.5l0.9-2.4l0,0L63.2,69.5z"/>
		</g>
		<g>
			<path d="M62.9,48.6l-1.4,0.9l0,0l0.9-2.4c0.2-0.8,0.3-1.6,0.5-2.5c0.2,0.8,0.4,1.6,0.6,2.4l1,2.3l0,0L62.9,48.6z"/>
		</g>
	</g>
</g>
<g>
	<g>
		<line class="st1" x1="239.2" y1="37.7" x2="238.8" y2="18"/>
		<g>
			<path d="M238.8,18.7l-1.4,0.9l0,0l0.9-2.4c0.2-0.8,0.3-1.6,0.5-2.5c0.2,0.8,0.4,1.6,0.6,2.4l1,2.3l0,0L238.8,18.7z"/>
		</g>
	</g>
</g>
<g>
	<g>
		<line class="st1" x1="28.5" y1="35.7" x2="28.5" y2="60.7"/>
		<g>
			<path d="M28.5,60l1.4-0.9l0,0L29,61.5c-0.2,0.8-0.4,1.6-0.5,2.5c-0.2-0.8-0.4-1.6-0.5-2.5L27,59.2l0,0L28.5,60z"/>
		</g>
	</g>
</g>
<g>
	<g>
		<line class="st3" x1="90.3" y1="44.7" x2="105.9" y2="44.7"/>
		<g>
			<path d="M105,44.7l-1-1.7l0.1,0l2.8,1.1c1,0.2,1.9,0.4,2.9,0.6c-1,0.2-1.9,0.4-2.9,0.6l-2.8,1.1l-0.1,0L105,44.7z"/>
		</g>
	</g>
</g>
<circle class="st4" cx="87.7" cy="44.7" r="2.5"/>
<text transform="matrix(1 0 0 1 92.5 38.024)" class="st5 st6">v</text>
<text transform="matrix(0.583 0 0 0.583 97.8276 42.0201)" class="st5 st6">o</text>
<text transform="matrix(1 0 0 1 236.5821 48.2071)" class="st5 st7">h</text>
<text transform="matrix(1 0 0 1 15.5 61.8524)" class="st8 st7">g</text>
<g>
	<text transform="matrix(1 0 0 1 53 54)" class="st5 st7">h</text>
	<text transform="matrix(1 0 0 1 52 64.5)" class="st8 st7">2</text>
	<line class="st9" x1="50.5" y1="56.5" x2="59" y2="56.5"/>
</g>
<g>
	<g>
		<line class="st1" x1="64.6" y1="44.6" x2="66.1" y2="44.6"/>
		<line class="st1" x1="70.4" y1="44.7" x2="71.9" y2="44.7"/>
	</g>
</g>
<g>
	<g>
		<line class="st1" x1="65.6" y1="73.6" x2="67.1" y2="73.6"/>
		<line class="st10" x1="69.7" y1="73.6" x2="84.1" y2="73.7"/>
		<line class="st1" x1="85.4" y1="73.7" x2="86.9" y2="73.7"/>
	</g>
</g>
<g>
	<g>
		<g>
			<line class="st1" x1="295" y1="59.5" x2="314.6" y2="59.5"/>
			<g>
				<path d="M313.9,59.5l-0.9-1.4l0,0l2.4,0.9c0.8,0.2,1.6,0.4,2.5,0.5c-0.8,0.2-1.6,0.4-2.5,0.5L313,61l0,0L313.9,59.5z"/>
			</g>
		</g>
	</g>
	<g>
		<g>
			<line class="st1" x1="295.4" y1="58.9" x2="295.4" y2="39.3"/>
			<g>
				<path d="M295.4,40.1l-1.4,0.9l0,0l0.9-2.3c0.2-0.8,0.4-1.6,0.5-2.5c0.2,0.8,0.4,1.6,0.5,2.5l0.9,2.3l0,0L295.4,40.1z"/>
			</g>
		</g>
	</g>
	<g>
		<text transform="matrix(1 0 0 1 295.9273 33.7203)" class="st8 st7">j</text>
		<g>
			<line class="st11" x1="295.4" y1="28.7" x2="297.9" y2="24.7"/>
			<line class="st11" x1="300.4" y1="28.7" x2="297.9" y2="24.7"/>
		</g>
	</g>
	<g>
		<text transform="matrix(1 0 0 1 316.9601 56.5727)" class="st8 st7">i</text>
		<g>
			<line class="st11" x1="315.5" y1="51.6" x2="318" y2="47.6"/>
			<line class="st11" x1="320.5" y1="51.6" x2="318" y2="47.6"/>
		</g>
	</g>
</g>
<text transform="matrix(1 0 0 1 176.5 85.8524)" class="st12 st13">bottom plate</text>
<text transform="matrix(1 0 0 1 176.7636 6.9999)" class="st12 st13">top plate</text>
<g>
	<g>
		<line class="st1" x1="238.7" y1="51.7" x2="239.1" y2="71.4"/>
		<g>
			<path d="M239.1,70.7l1.4-0.9l0,0l-0.9,2.4c-0.2,0.8-0.3,1.6-0.5,2.5c-0.2-0.8-0.4-1.6-0.6-2.4l-1-2.3l0,0L239.1,70.7z"/>
		</g>
	</g>
</g>
<g>
	<g>
		<path class="st9" d="M173.5,4c-0.8,0.1-3.6,0.3-6,2.5c-0.5,0.4-0.9,0.9-1.2,1.3"/>
		<g>
			<path d="M166.8,7.1l2.1-0.1l0,0.1l-2.4,2.1c-0.7,0.8-1.4,1.6-2,2.4c0.3-1,0.6-2,0.8-3l0.3-3.1l0.1,0L166.8,7.1z"/>
		</g>
	</g>
</g>
<g>
	<g>
		<path class="st9" d="M174.5,83.5c-0.8-0.1-3.6-0.3-6-2.5c-0.5-0.4-0.9-0.9-1.2-1.3"/>
		<g>
			<path d="M167.8,80.4l-1.1,1.8l-0.1,0l-0.3-3.1c-0.3-1-0.6-2-0.8-3c0.7,0.8,1.4,1.6,2,2.4l2.4,2.1l0,0.1L167.8,80.4z"/>
		</g>
	</g>
</g>
</svg>
