<?xml version="1.0" encoding="utf-8"?>
<!-- Generator: Adobe Illustrator 19.2.1, SVG Export Plug-In . SVG Version: 6.00 Build 0)  -->
<svg version="1.1" id="Layer_1" xmlns="http://www.w3.org/2000/svg" xmlns:xlink="http://www.w3.org/1999/xlink" x="0px" y="0px"
	 viewBox="0 0 264.2 105.5" style="enable-background:new 0 0 264.2 105.5;" xml:space="preserve">
<style type="text/css">
	.st0{opacity:0.4;fill:url(#SVGID_1_);stroke:#000000;stroke-width:0.5;stroke-miterlimit:10;}
	.st1{opacity:0.4;fill:url(#SVGID_2_);stroke:#000000;stroke-width:0.5;stroke-miterlimit:10;}
	.st2{font-family:'STIXGeneral-BoldItalic';}
	.st3{font-size:12px;}
	.st4{font-family:'STIXGeneral-Regular';}
	.st5{font-family:'STIXGeneral-Bold';}
	.st6{font-size:19px;}
	.st7{opacity:0.8;}
	.st8{fill:none;stroke:#000000;stroke-width:0.5;stroke-miterlimit:10;stroke-dasharray:2.998,1.9988;}
	.st9{fill:none;stroke:#000000;stroke-miterlimit:10;}
	.st10{enable-background:new    ;}
</style>
<radialGradient id="SVGID_1_" cx="-3.6648" cy="81.4706" r="29.9994" gradientTransform="matrix(1.1667 0 0 -1.1667 58.1757 150.4509)" gradientUnits="userSpaceOnUse">
	<stop  offset="0" style="stop-color:#FFFFFF"/>
	<stop  offset="0.238" style="stop-color:#FDFDFD;stop-opacity:0.9014"/>
	<stop  offset="0.4681" style="stop-color:#F5F5F5;stop-opacity:0.8465"/>
	<stop  offset="0.4939" style="stop-color:#E7E7E7;stop-opacity:0.8025"/>
	<stop  offset="0.5899" style="stop-color:#D3D3D3;stop-opacity:0.7641"/>
	<stop  offset="0.6766" style="stop-color:#BABABA;stop-opacity:0.7294"/>
	<stop  offset="0.7566" style="stop-color:#9A9A9A;stop-opacity:0.6974"/>
	<stop  offset="0.8315" style="stop-color:#757575;stop-opacity:0.6674"/>
	<stop  offset="0.9024" style="stop-color:#4A4A4A;stop-opacity:0.639"/>
	<stop  offset="1" style="stop-color:#1A1A1A;stop-opacity:0.6129"/>
	<stop  offset="1" style="stop-color:#000000;stop-opacity:0.6"/>
</radialGradient>
<circle class="st0" cx="53.9" cy="55.4" r="35"/>
<radialGradient id="SVGID_2_" cx="198.082" cy="-84.0946" r="10" gradientTransform="matrix(1.5 0 0 -1.5 -82.1682 -70.1054)" gradientUnits="userSpaceOnUse">
	<stop  offset="0" style="stop-color:#FFFFFF"/>
	<stop  offset="0.2466" style="stop-color:#FDFDFD;stop-opacity:0.9014"/>
	<stop  offset="0.3836" style="stop-color:#F5F5F5;stop-opacity:0.8465"/>
	<stop  offset="0.4939" style="stop-color:#E7E7E7;stop-opacity:0.8025"/>
	<stop  offset="0.5899" style="stop-color:#D3D3D3;stop-opacity:0.7641"/>
	<stop  offset="0.6766" style="stop-color:#BABABA;stop-opacity:0.7294"/>
	<stop  offset="0.7566" style="stop-color:#9A9A9A;stop-opacity:0.6974"/>
	<stop  offset="0.8315" style="stop-color:#757575;stop-opacity:0.6674"/>
	<stop  offset="0.9024" style="stop-color:#4A4A4A;stop-opacity:0.639"/>
	<stop  offset="0.9676" style="stop-color:#1A1A1A;stop-opacity:0.6129"/>
	<stop  offset="1" style="stop-color:#000000;stop-opacity:0.6"/>
</radialGradient>
<circle class="st1" cx="215" cy="55.9" r="15"/>
<text transform="matrix(1 0 0 1 50.6594 12.8999)" class="st2 st3">m</text>
<text transform="matrix(0.583 0 0 0.583 59.9954 16.896)" class="st4 st3">1</text>
<text transform="matrix(1 0 0 1 205.1312 78.9)" class="st2 st3">x=d</text>
<text transform="matrix(1 0 0 1 210.1313 33.9115)" class="st2 st3">m</text>
<text transform="matrix(0.583 0 0 0.583 219.4673 37.9076)" class="st4 st3">2</text>
<text transform="matrix(0.583 0 0 0.583 245 52.8271)"><tspan x="0" y="0" class="st5 st6">+</tspan><tspan x="14.2" y="0" class="st2 st6">x</tspan></text>
<g class="st7">
	<g>
		<line class="st8" x1="59.7" y1="55.9" x2="61.4" y2="55.9"/>
		<g>
			<g>
				<line class="st8" x1="53.5" y1="55.9" x2="248.4" y2="55.9"/>
				<g>
					<path d="M247.5,55.9l-1.1-1.8l0.1,0l2.9,1.2c1,0.2,2,0.5,3.1,0.7c-1,0.2-2,0.5-3.1,0.7l-2.9,1.2l-0.1,0L247.5,55.9z"/>
				</g>
			</g>
		</g>
		<path class="st8" d="M131.5,55.9"/>
	</g>
</g>
<line class="st9" x1="53.5" y1="60" x2="53.5" y2="51.5"/>
<line class="st9" x1="214.5" y1="60" x2="214.5" y2="51.5"/>
<text transform="matrix(1 0 0 1 43.131 75.8997)" class="st10"><tspan x="0" y="0" class="st2 st3">x=</tspan><tspan x="12.8" y="0" class="st5 st3">0</tspan></text>
</svg>
