<?xml version="1.0" encoding="utf-8"?>
<!-- Generator: Adobe Illustrator 19.2.1, SVG Export Plug-In . SVG Version: 6.00 Build 0)  -->
<svg version="1.1" id="Layer_1" xmlns="http://www.w3.org/2000/svg" xmlns:xlink="http://www.w3.org/1999/xlink" x="0px" y="0px"
	 viewBox="0 0 680 181.3" style="enable-background:new 0 0 680 181.3;" xml:space="preserve">
<style type="text/css">
	.st0{fill:none;stroke:#000000;stroke-width:0.4;stroke-miterlimit:10;}
	.st1{fill:none;stroke:#000000;stroke-width:0.4;stroke-miterlimit:10;stroke-dasharray:2.506,2.506;}
	.st2{fill:#FFFFFF;stroke:#000000;stroke-width:0.7;stroke-miterlimit:10;}
	.st3{fill:#FFFFFF;stroke:#000000;stroke-width:0.4;stroke-miterlimit:10;}
	.st4{fill:none;stroke:#000000;stroke-width:0.7;stroke-miterlimit:10;}
	.st5{opacity:0.3;fill:#D1D3D4;enable-background:new    ;}
	.st6{fill:#6D6E71;}
	.st7{font-family:'STIXGeneral-Bold';}
	.st8{font-size:10px;}
	.st9{fill:none;stroke:#000000;stroke-width:0.6;stroke-miterlimit:10;}
	.st10{fill:none;stroke:#000000;stroke-width:0.4;stroke-miterlimit:10;stroke-dasharray:2.7036,2.7036;}
	.st11{font-size:14px;}
	.st12{opacity:0.1;fill:none;stroke:#000000;stroke-width:0.4;stroke-miterlimit:10;enable-background:new    ;}
	.st13{font-family:'STIXGeneral-BoldItalic';}
	.st14{font-family:'STIXGeneral-Regular';}
	.st15{font-size:18px;}
	.st16{fill:none;}
	.st17{fill:none;stroke:#000000;stroke-width:0.5;stroke-miterlimit:10;}
</style>
<g>
	<g>
		<line class="st0" x1="310.8" y1="127.7" x2="312.3" y2="127.7"/>
		<line class="st1" x1="314.8" y1="127.7" x2="318.6" y2="127.7"/>
		<line class="st0" x1="319.8" y1="127.7" x2="321.3" y2="127.7"/>
	</g>
</g>
<rect x="68.6" y="84.8" class="st2" width="90" height="37.5"/>
<polygon class="st3" points="182.5,135.7 161.6,135.7 161.6,106 175.1,126 "/>
<circle class="st2" cx="87.8" cy="127" r="9.7"/>
<circle class="st2" cx="137.9" cy="126.8" r="9.7"/>
<line class="st4" x1="38.5" y1="136.7" x2="309.9" y2="136.5"/>
<polygon class="st5" points="311.1,136.8 183.9,136.8 174.9,126.3 311.1,126.3 "/>
<rect x="158.8" y="112.2" class="st6" width="3.6" height="9.8"/>
<text transform="matrix(1 0 0 1 260.625 134.6524)" class="st7 st8">snow</text>
<text transform="matrix(1 0 0 1 172.4643 156.0062)" class="st7 st8">plow</text>
<g>
	<g>
		<line class="st9" x1="169.7" y1="148.9" x2="165.2" y2="130.8"/>
		<g>
			<path d="M165.4,131.8l-1.8,1.8l-0.1-0.1l0.5-3.8c0-1.3-0.1-2.5-0.1-3.8c0.6,1.1,1.1,2.3,1.7,3.4l2.2,3.1v0.1L165.4,131.8z"/>
		</g>
	</g>
</g>
<g>
	<g>
		<line class="st0" x1="319.1" y1="140.9" x2="319.1" y2="151.3"/>
		<g>
			<path d="M319.1,141.7l1.4,0.9l0,0l-0.9-2.4c-0.2-0.8-0.4-1.6-0.5-2.5c-0.2,0.8-0.4,1.6-0.5,2.5l-0.9,2.4l0,0L319.1,141.7z"/>
		</g>
	</g>
</g>
<g>
	<g>
		<line class="st0" x1="319.1" y1="120" x2="319.1" y2="107.7"/>
		<g>
			<path d="M319.1,119.3l-1.4-0.9l0,0l0.9,2.4c0.2,0.8,0.4,1.6,0.5,2.5c0.2-0.8,0.4-1.6,0.5-2.5l0.9-2.4l0,0L319.1,119.3z"/>
		</g>
	</g>
</g>
<g>
	<g>
		<line class="st0" x1="305.8" y1="136.7" x2="307.3" y2="136.7"/>
		<line class="st10" x1="310" y1="136.7" x2="319.5" y2="136.7"/>
		<line class="st0" x1="320.8" y1="136.7" x2="322.3" y2="136.7"/>
	</g>
</g>
<text transform="matrix(1 0 0 1 322.3393 136.7872)" class="st7 st11">D</text>
<line class="st12" x1="176.5" y1="126.5" x2="313.1" y2="126.5"/>
<text transform="matrix(1 0 0 1 104.1607 103.5774)" class="st13 st11">M</text>
<text transform="matrix(1 0 0 1 84.3333 35)" class="st14 st15">Side View</text>
<text transform="matrix(1 0 0 1 468.0582 34.3333)" class="st14 st15">Top View</text>
<rect x="423.6" y="80.7" class="st2" width="90" height="48.6"/>
<line class="st4" x1="393.5" y1="136.7" x2="644.9" y2="136.5"/>
<rect x="529.9" y="76.3" class="st5" width="116.2" height="60.5"/>
<rect x="513.8" y="112.2" class="st6" width="3.6" height="9.8"/>
<text transform="matrix(1 0 0 1 585.4292 107.6844)" class="st7 st8">snow</text>
<text transform="matrix(4.489659e-11 -1 1 4.489659e-11 527.2034 117.0996)" class="st7 st8">plow</text>
<g>
	<path class="st16" d="M640.8,136.7"/>
</g>
<text transform="matrix(1 0 0 1 458.1607 107.6845)" class="st13 st11">M</text>
<rect x="513.8" y="93" class="st6" width="3.6" height="9.8"/>
<rect x="517.4" y="80" class="st3" width="12.9" height="48.9"/>
<g>
	<g>
		<line class="st0" x1="413.3" y1="83.6" x2="413.3" y2="97"/>
		<g>
			<path d="M413.3,84.3l1.4,0.9l0,0l-0.9-2.3c-0.2-0.8-0.4-1.6-0.5-2.5c-0.2,0.8-0.4,1.6-0.5,2.5l-0.9,2.3l0,0L413.3,84.3z"/>
		</g>
	</g>
</g>
<g>
	<g>
		<line class="st0" x1="413.3" y1="125.7" x2="413.3" y2="111.4"/>
		<g>
			<path d="M413.3,125l-1.4-0.9l0,0l0.9,2.3c0.2,0.8,0.4,1.6,0.5,2.5c0.2-0.8,0.4-1.6,0.5-2.5l0.9-2.3l0,0L413.3,125z"/>
		</g>
	</g>
</g>
<text transform="matrix(1 0 0 1 406.3393 109.6846)" class="st7 st11">W</text>
<line class="st4" x1="395.5" y1="76.7" x2="646.9" y2="76.5"/>
<g>
	<path class="st16" d="M397.6,104.8"/>
</g>
<g>
	<line class="st17" x1="526.3" y1="56" x2="526.3" y2="77"/>
	<line class="st17" x1="523.3" y1="63" x2="524.3" y2="77"/>
	<line class="st17" x1="529.3" y1="63" x2="528.3" y2="77"/>
</g>
<g>
	<g>
		<line class="st17" x1="526.3" y1="150" x2="526.3" y2="129"/>
		<line class="st17" x1="529.3" y1="143" x2="528.3" y2="129"/>
	</g>
	<line class="st17" x1="523.3" y1="143" x2="524.3" y2="129"/>
</g>
<text transform="matrix(1 0 0 1 476.4643 150.0003)" class="st7 st8">plow</text>
<g>
	<g>
		<line class="st4" x1="499.5" y1="144.6" x2="518.2" y2="127.8"/>
		<g>
			<path d="M517.2,128.7l-2.8-0.8l0-0.1l4.1-1.5c1.3-0.7,2.6-1.4,3.8-2.2c-0.9,1.2-1.7,2.4-2.6,3.6l-2,4l-0.1,0L517.2,128.7z"/>
		</g>
	</g>
</g>
</svg>
