<?xml version="1.0" encoding="utf-8"?>
<!-- Generator: Adobe Illustrator 19.2.1, SVG Export Plug-In . SVG Version: 6.00 Build 0)  -->
<svg version="1.1" id="Layer_1" xmlns="http://www.w3.org/2000/svg" xmlns:xlink="http://www.w3.org/1999/xlink" x="0px" y="0px"
	 viewBox="0 0 241.3 233" style="enable-background:new 0 0 241.3 233;" xml:space="preserve">
<style type="text/css">
	.st0{fill:#EBE6E5;stroke:#C7C2BB;stroke-width:2;stroke-miterlimit:10;}
	.st1{fill:none;stroke:#C7C2BB;stroke-width:2;stroke-miterlimit:10;}
	.st2{fill:#DFDCD8;stroke:#000000;stroke-width:0.4;stroke-miterlimit:10;}
	.st3{fill:none;stroke:#000000;stroke-width:0.5;stroke-miterlimit:10;}
	.st4{fill:none;stroke:#F15F49;stroke-width:2;stroke-miterlimit:10;}
	.st5{font-family:'STIXGeneral-Regular';}
	.st6{font-size:10px;}
	.st7{font-family:'STIXGeneral-Bold';}
	.st8{font-size:12px;}
	.st9{fill:#F04E36;}
	.st10{fill:none;stroke:#F15F49;stroke-width:0.7;stroke-miterlimit:10;}
	.st11{fill:none;stroke:#000000;stroke-width:0.7;stroke-miterlimit:10;}
	.st12{fill:none;stroke:#000000;stroke-width:0.5;stroke-miterlimit:10;stroke-dasharray:3.0349,3.0349;}
	.st13{opacity:0.1;fill:#DFDCD8;stroke:#000000;stroke-width:0.4;stroke-miterlimit:10;enable-background:new    ;}
	.st14{fill:none;stroke:#DBDADA;stroke-miterlimit:10;}
	.st15{font-family:'STIXGeneral-BoldItalic';}
	.st16{font-size:14px;}
</style>
<circle class="st0" cx="58.9" cy="61.4" r="27.1"/>
<line class="st1" x1="85.7" y1="62.1" x2="86.2" y2="154.1"/>
<rect x="77" y="151.7" class="st2" width="18.4" height="18.4"/>
<line class="st3" x1="58.9" y1="61.4" x2="86" y2="61.4"/>
<line class="st3" x1="77.5" y1="41.8" x2="58.9" y2="61.4"/>
<path class="st4" d="M77.5,41.9c4.2,1.4,8.5,11.9,8.4,19.3"/>
<path class="st3" d="M71.1,48.9c4.2,2.1,6.9,7.8,6.2,12.5"/>
<text transform="matrix(1 0 0 1 68.2322 59.8333)" class="st5 st6">θ</text>
<circle cx="77.5" cy="41.8" r="2.5"/>
<text transform="matrix(1 0 0 1 81.7305 37.4345)" class="st7 st8">A</text>
<text transform="matrix(1 0 0 1 90.0833 65.5833)" class="st7 st8">B</text>
<text transform="matrix(1 0 0 1 86.0032 50.5833)" class="st9 st7 st8">s</text>
<circle cx="86" cy="61.4" r="2.5"/>
<line class="st10" x1="167.9" y1="150.9" x2="167.9" y2="176.7"/>
<circle class="st0" cx="158.9" cy="61.4" r="27.1"/>
<line class="st1" x1="185.7" y1="62.1" x2="186.2" y2="176.1"/>
<rect x="177" y="176.7" transform="matrix(0.9999 -1.677141e-02 1.677141e-02 0.9999 -3.0916 3.1495)" class="st2" width="18.4" height="18.4"/>
<line class="st3" x1="158.9" y1="61.4" x2="186" y2="61.4"/>
<circle cx="186.5" cy="61.8" r="2.5"/>
<text transform="matrix(1 0 0 1 192.2305 61.8021)" class="st7 st8">A</text>
<text transform="matrix(1 0 0 1 190.0833 93.5833)" class="st7 st8">B</text>
<text transform="matrix(1 0 0 1 190.0832 77.6232)" class="st9 st7 st8">s</text>
<circle cx="186" cy="89.4" r="2.5"/>
<line class="st4" x1="186.2" y1="62.7" x2="186.2" y2="87.5"/>
<g>
	<path class="st11" d="M37.1,31.8c1-1.1,2.7-2.7,5-4c2.5-1.5,4.7-2,6.5-2.5c0.7-0.2,1.4-0.3,2.3-0.5"/>
	<g>
		<path d="M49.6,25.1l-1.8-2.3l0.1-0.1l4.3,1.2c1.5,0.2,2.9,0.3,4.4,0.5c-1.4,0.5-2.8,0.9-4.2,1.4l-3.9,2.1h-0.1L49.6,25.1z"/>
	</g>
</g>
<g>
	<line class="st3" x1="86.2" y1="151.9" x2="87.7" y2="151.9"/>
	<line class="st12" x1="90.8" y1="151.9" x2="192.4" y2="151.9"/>
	<line class="st3" x1="193.9" y1="151.9" x2="195.4" y2="151.9"/>
</g>
<rect x="177" y="151.7" class="st13" width="18.4" height="18.4"/>
<line class="st3" x1="166.2" y1="176.9" x2="180.4" y2="176.9"/>
<text transform="matrix(1 0 0 1 158.8888 169.7503)" class="st9 st7 st8">s</text>
<circle cx="86.2" cy="151.2" r="2.5"/>
<text transform="matrix(1 0 0 1 90.8333 150.3833)" class="st7 st8">C</text>
<rect x="4" y="4" class="st14" width="231.7" height="223.7"/>
<circle cx="186.2" cy="176.2" r="2.5"/>
<text transform="matrix(1 0 0 1 197.8333 178.3833)" class="st7 st8">C</text>
<text transform="matrix(1 0 0 1 80.3333 216.0003)" class="st15 st16">t</text>
<text transform="matrix(1 0 0 1 166.2338 69.3833)" class="st5 st6">θ</text>
<path class="st3" d="M176.3,61.2c0.7,4.7-2,10.4-6.2,12.5"/>
<line class="st3" x1="158" y1="61" x2="176.6" y2="80.6"/>
<text transform="matrix(1 0 0 1 56.6333 51.8833)" class="st15 st8">R</text>
<text transform="matrix(1 0 0 1 167.3526 58.9333)" class="st15 st8">R</text>
<g>
	<text transform="matrix(1 0 0 1 163.3333 216.0003)" class="st15 st16">t + </text>
	<text transform="matrix(1 0 0 1 181.7 216.0006)" class="st7 st16">Δ</text>
	<text transform="matrix(1 0 0 1 194.3333 216.0003)" class="st15 st16">t</text>
</g>
<g>
	<path class="st11" d="M136.1,31.8c1-1.1,2.7-2.7,5-4c2.5-1.5,4.7-2,6.5-2.5c0.7-0.2,1.4-0.3,2.3-0.5"/>
	<g>
		<path d="M148.6,25.1l-1.8-2.3l0.1-0.1l4.3,1.2c1.5,0.2,2.9,0.3,4.4,0.5c-1.4,0.5-2.8,0.9-4.2,1.4l-3.9,2.1h-0.1L148.6,25.1z"/>
	</g>
</g>
</svg>
