<?xml version="1.0" encoding="utf-8"?>
<!-- Generator: Adobe Illustrator 19.2.1, SVG Export Plug-In . SVG Version: 6.00 Build 0)  -->
<svg version="1.1" id="Layer_1" xmlns="http://www.w3.org/2000/svg" xmlns:xlink="http://www.w3.org/1999/xlink" x="0px" y="0px"
	 viewBox="0 0 612.6 277.5" style="enable-background:new 0 0 612.6 277.5;" xml:space="preserve">
<style type="text/css">
	.st0{opacity:0.7;fill:#D7D3CE;stroke:#000000;stroke-width:2;stroke-miterlimit:10;}
	.st1{opacity:0;clip-path:url(#SVGID_2_);fill-rule:evenodd;clip-rule:evenodd;fill:#FFFFFF;}
	.st2{fill:none;stroke:#000000;stroke-width:2;stroke-miterlimit:10;}
	.st3{fill:none;stroke:#000000;stroke-miterlimit:10;stroke-dasharray:12;}
	.st4{fill:none;stroke:#000000;stroke-width:1.5;stroke-miterlimit:10;}
	.st5{fill:#010101;}
	.st6{font-family:'TimesNewRomanPS-ItalicMT';}
	.st7{font-size:24px;}
	.st8{font-size:13.875px;}
	.st9{font-family:'Symbol';}
	.st10{font-family:'TimesNewRomanPSMT';}
</style>
<circle class="st0" cx="92.5" cy="61" r="50"/>
<g>
	<defs>
		<rect id="SVGID_1_" x="94.8" y="-181.6" width="300" height="157"/>
	</defs>
	<clipPath id="SVGID_2_">
		<use xlink:href="#SVGID_1_"  style="overflow:visible;"/>
	</clipPath>
	<rect x="94.8" y="-181.6" class="st1" width="300" height="157"/>
</g>
<line class="st2" x1="20.6" y1="256.5" x2="507.1" y2="256.5"/>
<line class="st2" x1="420.6" y1="256.5" x2="20.6" y2="86.8"/>
<line class="st2" x1="20.6" y1="86.8" x2="20.6" y2="256.5"/>
<circle class="st0" cx="433.4" cy="206.5" r="50"/>
<line class="st3" x1="92.5" y1="61" x2="519.9" y2="61"/>
<line class="st3" x1="157.2" y1="206.5" x2="519.9" y2="206.5"/>
<g>
	<g>
		<line class="st4" x1="507.1" y1="194.3" x2="507.1" y2="73.2"/>
		<g>
			<path d="M507.1,191.6l-5.4-3.3l-0.1,0.2l3.5,8.8c0.7,3.1,1.4,6.1,2,9.2c0.7-3.1,1.4-6.1,2-9.2l3.5-8.8l-0.1-0.2L507.1,191.6z"/>
		</g>
		<g>
			<path d="M507.1,75.9l-5.4,3.3l-0.1-0.2l3.5-8.8c0.7-3.1,1.4-6.1,2-9.2c0.7,3.1,1.4,6.1,2,9.2l3.5,8.8l-0.1,0.2L507.1,75.9z"/>
		</g>
	</g>
</g>
<path class="st4" d="M332.6,256.4c-0.8-0.9-8.2-9.8-5.3-21.3c2.1-8.5,8.4-12.9,10-14"/>
<g>
	<g>
		<line class="st4" x1="92.5" y1="61" x2="116.3" y2="31.6"/>
		<g>
			<path d="M114.6,33.7l-6.3-0.8l0-0.2l8.3-4.6c2.5-2,4.9-3.9,7.4-5.9c-1.4,2.8-2.8,5.6-4.2,8.4l-2.8,9.1l-0.2,0.1L114.6,33.7z"/>
		</g>
	</g>
</g>
<text transform="matrix(1 0 0 1 83.7301 41.5683)" class="st5 st6 st7">R</text>
<text transform="matrix(1 0 0 1 483.3799 133.7494)" class="st5 st6 st7">h</text>
<path class="st5" d="M299.2,225.7c0.8-0.3,1.5-0.5,2.1-0.6l1-4.1l1,0.4l-0.9,3.8c1.1,0.2,1.9,0.5,2.4,0.9c0.4,0.3,0.8,0.8,1,1.4
	c0.3,0.6,0.4,1.2,0.4,1.8c0,0.6-0.1,1.3-0.2,2c-0.1,0.5-0.3,1-0.5,1.6c-0.3,0.6-0.7,1.2-1.1,1.9c-0.5,0.7-1.1,1.3-1.7,1.7
	c-0.7,0.4-1.7,0.8-3.2,1.1l-1.2,5.1l-0.9-0.3l1.1-4.7c-1.1-0.3-2-0.7-2.7-1.2c-0.7-0.5-1-1.3-1.1-2.3c0-1.1,0-1.9,0.1-2.5
	c0.2-0.6,0.4-1.3,0.8-1.9c0.3-0.6,0.8-1.3,1.5-2.2C297.8,226.6,298.5,226.1,299.2,225.7L299.2,225.7z M297.8,236.1
	c0.2,0.3,0.5,0.5,0.8,0.5l2.5-10.6c-0.5,0.1-1,0.3-1.4,0.6c-0.4,0.3-0.9,0.8-1.4,1.5c-0.5,0.8-0.9,1.7-1.2,2.8
	c-0.2,0.7-0.3,1.5-0.3,2.2c0,0.7,0.1,1.3,0.3,1.8C297.3,235.4,297.5,235.8,297.8,236.1L297.8,236.1z M303.1,226.7
	c-0.5-0.3-0.8-0.6-0.9-0.7l-2.6,10.6c0.5-0.1,1-0.2,1.4-0.4c0.4-0.2,0.8-0.6,1.2-1.1c0.4-0.6,0.7-1.1,0.9-1.5c0.2-0.5,0.4-1,0.5-1.5
	c0.2-0.7,0.3-1.3,0.3-1.9c0-0.6,0-1.2-0.1-1.9C303.7,227.6,303.5,227.1,303.1,226.7L303.1,226.7z"/>
<g>
	<g>
		<line class="st4" x1="290.6" y1="81.7" x2="290.6" y2="112.8"/>
		<g>
			<path d="M290.6,110.1l5.4-3.3l0.1,0.2l-3.5,8.8c-0.7,3.1-1.4,6.1-2,9.2c-0.7-3.1-1.4-6.1-2-9.2L285,107l0.1-0.2L290.6,110.1z"/>
		</g>
	</g>
</g>
<text transform="matrix(1 0 0 1 306.2002 99.333)" class="st5 st6 st7">g</text>
<text transform="matrix(1 0 0 1 16.667 67.9997)" class="st5 st6 st7">M</text>
<text transform="matrix(1 0 0 1 78.1364 90.583)" class="st5 st6 st7">I</text>
<text transform="matrix(1 0 0 1 87.2614 98.333)" class="st5 st6 st8">c</text>
<text transform="matrix(1 0 0 1 93.3239 98.333)" class="st5 st6 st8">m</text>
<text transform="matrix(1 0 0 1 536.6514 211.8772)" class="st5 st6 st7">U</text>
<text transform="matrix(1 0 0 1 558.2764 201.1272)" class="st5 st6 st8">g</text>
<text transform="matrix(1 0 0 1 573.2764 211.8772)" class="st5 st9 st7">=</text>
<text transform="matrix(1 0 0 1 591.7139 211.8772)" class="st5 st10 st7">0</text>
<g>
	<g>
		<line class="st4" x1="433.4" y1="207.6" x2="492.7" y2="233.8"/>
		<g>
			<path d="M490.2,232.7l-0.8-6.3l0.2,0l6.6,6.8c2.5,1.9,5.1,3.7,7.6,5.6c-3.1-0.6-6.2-1.2-9.2-1.9l-9.5-0.4l-0.1-0.2L490.2,232.7z"
				/>
		</g>
	</g>
</g>
<polygon class="st5" points="421.3,175 421.7,173.8 414.8,173.8 414.8,172.9 421.7,172.9 421.3,171.7 424.6,173.4 "/>
<path class="st5" d="M416.2,177.5c0.5-0.1,1.1-0.1,1.6-0.1h0.5l-0.1,0.4c-0.8,0.3-1.5,0.6-1.9,0.8c-0.4,0.3-0.8,0.6-1.3,1.2
	c-0.4,0.5-0.8,1.1-1.2,1.9c-0.3,0.7-0.6,1.5-0.8,2.3c-0.1,0.4-0.2,0.7-0.2,1.1c-0.1,0.3-0.1,0.7-0.1,1.2c0,0.5,0,1,0.1,1.3
	c0,0.3,0.2,0.6,0.4,0.9c0.2,0.3,0.5,0.4,0.9,0.4c0.2,0,0.5-0.1,1-0.2c0.5-0.1,0.9-0.6,1.4-1.3c0.4-0.8,0.7-1.3,0.7-1.4
	c0-0.4-0.1-1-0.1-1.7c0-0.6,0.1-1.1,0.2-1.7l0.1-0.5c0-0.1,0.2-0.5,0.5-1.3c0.3-0.7,0.8-1.1,1.3-1.1c0.6,0,0.8,0.4,0.8,1.1
	c-0.1,0.8-0.2,1.4-0.3,1.8c-0.2,0.6-0.3,1.2-0.5,1.6c-0.4,0.8-0.7,1.3-1,1.8c0,0.2,0,0.5,0,0.7c0,0.2,0,0.5,0,0.7
	c0.1,0.8,0.4,1.2,0.8,1.3c0.4,0.1,0.7,0.2,0.9,0.2c0.4,0,0.7-0.1,1.1-0.4c0.4-0.3,0.6-0.6,0.9-0.9c0.2-0.3,0.5-0.8,0.8-1.4
	c0.3-0.6,0.5-1.3,0.7-2.2c0.2-0.8,0.3-1.5,0.3-2.2c0-0.8-0.1-1.4-0.2-1.8c-0.2-0.5-0.4-0.9-0.7-1.2c-0.3-0.3-0.8-0.6-1.5-0.8
	l0.1-0.4h0.5c0.6,0,1.1,0,1.5,0.1c0.5,0.1,1.1,0.6,1.9,1.3c0.8,0.7,1.1,1.7,0.9,3c-0.2,1.1-0.3,1.9-0.4,2.4c-0.1,0.5-0.3,1-0.5,1.4
	c-0.3,0.5-0.5,1-0.8,1.4c-0.4,0.5-0.8,1-1.3,1.5c-0.5,0.4-1,0.7-1.3,0.9c-0.4,0.1-0.7,0.2-0.9,0.3c-0.2,0.1-0.5,0.1-0.8,0.1
	c-0.3,0-0.6,0-0.7-0.1c-0.2,0-0.5-0.2-0.8-0.4c-0.3-0.2-0.6-0.5-0.7-0.7c-0.2-0.2-0.4-0.6-0.6-1.2c-0.4,0.5-0.8,0.9-1.1,1.2
	c-0.4,0.3-0.7,0.5-1.1,0.7c-0.4,0.2-0.8,0.3-1,0.4c-0.2,0.1-0.5,0.1-0.8,0.1c-0.2,0-0.5,0-0.7-0.1c-0.3-0.1-0.6-0.2-0.8-0.3
	c-0.3-0.1-0.6-0.4-0.9-0.9c-0.3-0.5-0.5-1-0.6-1.8c-0.1-0.7-0.1-1.6,0.2-2.6c0.1-0.3,0.3-1.1,0.8-2.4c0.4-1.3,1.2-2.3,2.4-3
	C414.8,178.1,415.7,177.6,416.2,177.5L416.2,177.5z"/>
<text transform="matrix(1 0 0 1 425.8368 197.1005)" class="st5 st6 st8">f</text>
<path class="st5" d="M442.4,187.3c-1.6-1.6-2.4-3.6-2.4-5.9c0-2.3,0.8-4.2,2.4-5.8c1.6-1.6,3.6-2.4,5.9-2.4s4.2,0.8,5.8,2.4
	c1.6,1.6,2.4,3.6,2.4,5.8s-0.8,4.3-2.4,5.9c-1.6,1.6-3.6,2.4-5.8,2.4C445.9,189.8,444,189,442.4,187.3L442.4,187.3z M443.3,176.5
	c-1.4,1.4-2.1,3-2.1,5c0,1.9,0.7,3.6,2.1,4.9c1.4,1.4,3,2.1,4.9,2.1c1.9,0,3.6-0.7,5-2.1c1.4-1.4,2-3,2-4.9c0-1.9-0.7-3.6-2-5
	c-1.4-1.4-3-2-5-2C446.3,174.5,444.6,175.1,443.3,176.5L443.3,176.5z M447.3,181.5l-3.8-3.7l0.9-0.9l3.8,3.8l3.7-3.7l0.9,0.9
	l-3.8,3.7l3.8,3.8l-0.9,0.9l-3.7-3.8l-3.8,3.8l-0.9-0.9L447.3,181.5z"/>
<text transform="matrix(1 0 0 1 509.6931 238.6732)" class="st5 st6 st7">v</text>
<text transform="matrix(1 0 0 1 518.2556 246.4232)" class="st5 st6 st8">f</text>
</svg>
