<?xml version="1.0" encoding="utf-8"?>
<!-- Generator: Adobe Illustrator 19.2.1, SVG Export Plug-In . SVG Version: 6.00 Build 0)  -->
<svg version="1.1" id="Layer_1" xmlns="http://www.w3.org/2000/svg" xmlns:xlink="http://www.w3.org/1999/xlink" x="0px" y="0px"
	 viewBox="0 0 319.7 116" style="enable-background:new 0 0 319.7 116;" xml:space="preserve">
<style type="text/css">
	.st0{fill:none;stroke:#000000;stroke-miterlimit:10;}
	.st1{fill:#FFFFFF;stroke:#000000;stroke-miterlimit:10;}
	.st2{fill:#ED1C24;}
	.st3{fill:none;stroke:#000000;stroke-width:0.5;stroke-miterlimit:10;}
	.st4{fill:none;stroke:#000000;stroke-width:0.5;stroke-miterlimit:10;stroke-dasharray:3.0221,3.0221;}
	.st5{fill:#6D6E71;stroke:#000000;stroke-width:0.5;stroke-miterlimit:10;}
	.st6{font-family:'STIXGeneral-Bold';}
	.st7{font-size:12px;}
	.st8{font-size:8px;}
	.st9{font-family:'STIXGeneral-BoldItalic';}
	.st10{font-size:14px;}
	.st11{font-size:4.664px;}
</style>
<line class="st0" x1="14.3" y1="87.9" x2="236.3" y2="89.3"/>
<g>
	<g>
		<g>
			<path class="st1" d="M172.2,30.5c-0.5-0.1-4-0.7-5.4-2.7c-1-1.4-0.7-3.2,1.3-4.3c1.7-0.9,4.1-1.2,4.5-1.2c0.8-0.1,1.4-0.1,1.6,0
				c3,0.1,4.9,1.2,5.1,1c0.5-0.3-7.4-3.4-6.7-6.7c0.4-1.8,3-3.1,3.1-3.1c1.8-0.8,3.7-1.1,4.5-1.2c0.9-0.1,2.8-0.3,4.9,0
				c2.5,0.4,3.8,1.3,4,1.2c0.3-0.2-3.3-1.7-3.6-3.9c-0.3-1.8,2-3.2,2.2-3.4c1.6-1,3.5-1.3,5.8-1.7c2-0.3,3.7-0.4,4.9-0.5"/>
			<path class="st1" d="M171.7,31.1c-1.1-0.3-3.4-0.9-6.3-0.7c-1.3,0.1-4.3,0.2-5.8,1.4c-1,0.8-1,1.7-0.9,2.7c0.1,1.1,0.1,2,1.3,2.7
				c1.3,0.7,3.5,0.8,4.9,1c0.1,0,0.3,0,0.6,0c3.5,0.2,5.5-0.3,5.7,0c0.3,0.3-4.6,1.2-7.2,3.6c-1.6,1.6-1.8,3.3-1.8,3.9
				c-0.1,0.9-0.1,1.6,0.4,2.4c1.5,2.3,5.9,3.1,6.3,3.1c0.5,0.1,4.3,0.7,6.7-0.2c0.3-0.1,0.6-0.3,0.8-0.4c1.7-1.1,1.5-2.5,1.5-2.5
				s-1.9,3.4,0.9,5.5c1.5,1.1,3.8,1.6,4.5,1.7s3.5,0.6,6.3,0c2.2-0.5,3.5-1.6,5.8-3.9c1.3-1.2,2.1-2.2,2.7-2.9"/>
		</g>
		<g>
			<path class="st1" d="M225.1,30.5c0.5-0.1,4-0.7,5.4-2.7c1-1.4,0.7-3.2-1.3-4.3c-1.7-0.9-4.1-1.2-4.5-1.2c-0.8-0.1-1.4-0.1-1.6,0
				c-3,0.1-4.9,1.2-5.1,1c-0.5-0.3,7.4-3.4,6.7-6.7c-0.4-1.8-3-3.1-3.1-3.1c-1.8-0.8-3.7-1.1-4.5-1.2c-0.9-0.1-2.8-0.3-4.9,0
				c-2.5,0.4-3.8,1.3-4,1.2c-0.3-0.2,3.3-1.7,3.6-3.9c0.3-1.8-2-3.2-2.2-3.4c-1.6-1-3.5-1.3-5.8-1.7c-2-0.3-3.7-0.4-4.9-0.5"/>
			<path class="st1" d="M225.6,31.1c1.1-0.3,3.4-0.9,6.3-0.7c1.3,0.1,4.3,0.2,5.8,1.4c1,0.8,1,1.7,0.9,2.7c-0.1,1.1-0.1,2-1.3,2.7
				c-1.3,0.7-3.5,0.8-4.9,1c-0.1,0-0.3,0-0.6,0c-3.5,0.2-5.5-0.3-5.7,0c-0.3,0.3,4.6,1.2,7.2,3.6c1.6,1.6,1.8,3.3,1.8,3.9
				c0.1,0.9,0.1,1.6-0.4,2.4c-1.5,2.3-5.9,3.1-6.3,3.1c-0.5,0.1-4.3,0.7-6.7-0.2c-0.3-0.1-0.6-0.3-0.8-0.4c-1.7-1.1-1.5-2.5-1.5-2.5
				s1.9,3.4-0.9,5.5c-1.5,1.1-3.8,1.6-4.5,1.7s-3.5,0.6-6.3,0c-2.2-0.5-3.5-1.6-5.8-3.9c-1.3-1.2-2.1-2.2-2.7-2.9"/>
		</g>
	</g>
	<path class="st0" d="M195.9,50.7c-0.3,11.2-1.1,27.2-6.3,37.4"/>
	<path class="st0" d="M203.6,51.7c0.3,11.2,1.1,27.2,6.3,37.4"/>
</g>
<circle class="st2" cx="160.2" cy="34.5" r="4"/>
<g>
	<g>
		<line class="st3" x1="151.8" y1="38.6" x2="151" y2="83.1"/>
		<g>
			<path d="M151.8,39.5l1.8,1.1v-0.1l-1.1-3c-0.2-1-0.4-2.1-0.6-3.1c-0.2,1-0.5,2-0.7,3.1l-1.2,2.9v0.1L151.8,39.5z"/>
		</g>
		<g>
			<path d="M151,82.2l1.8-1.1v0.1l-1.2,2.9c-0.2,1-0.5,2-0.7,3.1c-0.2-1-0.4-2.1-0.6-3.1l-1.1-3V81L151,82.2z"/>
		</g>
	</g>
</g>
<g>
	<g>
		<line class="st3" x1="28.7" y1="96.9" x2="147.3" y2="96.9"/>
		<g>
			<path d="M29.6,96.9l1.1-1.8h-0.1l-2.9,1.2c-1,0.2-2,0.5-3.1,0.7c1,0.2,2,0.5,3.1,0.7l2.9,1.2h0.1L29.6,96.9z"/>
		</g>
		<g>
			<path d="M146.4,96.9l-1.1-1.8h0.1l2.9,1.2c1,0.2,2,0.5,3.1,0.7c-1,0.2-2,0.5-3.1,0.7l-2.9,1.2h-0.1L146.4,96.9z"/>
		</g>
	</g>
</g>
<g>
	<g>
		<line class="st3" x1="27.4" y1="71.9" x2="28.9" y2="71.9"/>
		<line class="st4" x1="31.9" y1="71.9" x2="151.2" y2="71.9"/>
		<line class="st3" x1="152.8" y1="71.9" x2="154.3" y2="71.9"/>
	</g>
</g>
<g>
	<g>
		<line class="st3" x1="16.6" y1="72.7" x2="16.6" y2="82.1"/>
		<g>
			<path d="M16.6,72.9c0.5,0.5,1.6,0.8,2.3,0.8c-1-0.7-1.8-1.6-2.3-2.8c-0.5,1.1-1.3,2-2.3,2.8C15.1,73.6,16,73.4,16.6,72.9z"/>
		</g>
		<g>
			<path d="M16.6,81.9c0.5-0.5,1.6-0.8,2.3-0.8c-1,0.7-1.8,1.6-2.3,2.8c-0.5-1.1-1.3-2-2.3-2.8C15.1,81.1,16,81.3,16.6,81.9z"/>
		</g>
	</g>
</g>
<rect x="22.4" y="65.2" transform="matrix(0.9397 -0.342 0.342 0.9397 -21.084 14.3866)" class="st5" width="15.7" height="3.6"/>
<g>
	<g>
		<line class="st3" x1="30.2" y1="67" x2="61.5" y2="55.6"/>
		<g>
			<path d="M60.7,55.9L59,54.6v-0.1l3.2,0.1c1-0.1,2.1-0.3,3.1-0.4c-0.9,0.6-1.8,1.1-2.7,1.7L60.3,58h-0.1L60.7,55.9z"/>
		</g>
	</g>
</g>
<path class="st3" d="M63.1,59c0.7,0.6,2,1.9,2.4,3.6c0.7,2.7-0.9,4.7-1.5,5.4"/>
<g>
	<text transform="matrix(1 0 0 1 53.1212 68.8439)" class="st6 st7">θ</text>
	<text transform="matrix(1 0 0 1 58.5025 70.9828)" class="st6 st8">o</text>
</g>
<text transform="matrix(1 0 0 1 38.112 54.0539)" class="st9 st10">v</text>
<text transform="matrix(1 0 0 1 44.3276 56.7178)" class="st9 st11">0</text>
<text transform="matrix(1 0 0 1 142.6009 63.5177)" class="st9 st10">h</text>
<text transform="matrix(1 0 0 1 79.027 111.2512)" class="st9 st10">d</text>
<text transform="matrix(1 0 0 1 9.8655 80.722)" class="st9 st10">s</text>
<g>
	<g>
		<line class="st3" x1="280" y1="48" x2="303.7" y2="48"/>
		<g>
			<path d="M302.8,48l-1.1-1.8h0.1l2.9,1.2c1,0.2,2,0.5,3.1,0.7c-1,0.2-2,0.5-3.1,0.7l-2.9,1.2h-0.1L302.8,48z"/>
		</g>
	</g>
</g>
<g>
	<g>
		<line class="st3" x1="277.9" y1="47.9" x2="277.9" y2="24.2"/>
		<g>
			<path d="M277.9,25.1l-1.8,1.1v-0.1l1.2-2.9c0.2-1,0.5-2,0.7-3.1c0.2,1,0.5,2,0.7,3.1l1.2,2.9v0.1L277.9,25.1z"/>
		</g>
	</g>
</g>
<g>
	<text transform="matrix(1 0 0 1 305.3272 45.5715)" class="st6 st10">i</text>
	<g>
		<line class="st0" x1="303.3" y1="38.3" x2="308" y2="32.5"/>
		<line class="st0" x1="312.3" y1="38.3" x2="307.5" y2="32.5"/>
	</g>
</g>
<g>
	<text transform="matrix(1 0 0 1 281.6281 20.5112)" class="st6 st10">j</text>
	<g>
		<line class="st0" x1="279.7" y1="14.3" x2="284.5" y2="8.5"/>
		<line class="st0" x1="288.7" y1="14.3" x2="283.9" y2="8.5"/>
	</g>
</g>
</svg>
