<?xml version="1.0" encoding="utf-8"?>
<!-- Generator: Adobe Illustrator 19.2.1, SVG Export Plug-In . SVG Version: 6.00 Build 0)  -->
<svg version="1.1" id="Layer_1" xmlns="http://www.w3.org/2000/svg" xmlns:xlink="http://www.w3.org/1999/xlink" x="0px" y="0px"
	 viewBox="0 0 330.4 388" style="enable-background:new 0 0 330.4 388;" xml:space="preserve">
<style type="text/css">
	.st0{fill:none;stroke:#000000;stroke-width:2;stroke-miterlimit:10;}
	.st1{fill:#F8F8F8;stroke:#000000;stroke-miterlimit:10;}
	.st2{fill:none;stroke:#948F8F;stroke-width:3;stroke-miterlimit:10;}
	.st3{font-family:'MyriadPro-Regular';}
	.st4{font-size:60px;}
	.st5{font-family:'STIXGeneral-Bold';}
	.st6{font-size:18px;}
	.st7{font-family:'TimesNewRomanPSMT';}
	.st8{font-family:'STIXGeneral-Regular';}
	.st9{fill:none;stroke:#070305;stroke-miterlimit:10;}
	.st10{fill:#070305;}
	.st11{opacity:0.5;fill:#DBDADA;stroke:#000000;stroke-width:0.7;stroke-miterlimit:10;}
	.st12{fill:url(#SVGID_1_);}
	.st13{font-size:26px;}
	.st14{fill:none;stroke:#000000;stroke-miterlimit:10;}
	.st15{font-family:'STIXGeneral-BoldItalic';}
</style>
<line class="st0" x1="135.9" y1="49.6" x2="135.9" y2="147.4"/>
<circle class="st1" cx="135.9" cy="144.4" r="28.5"/>
<circle class="st1" cx="195.9" cy="271.9" r="28.5"/>
<line class="st2" x1="165.7" y1="144.2" x2="165.7" y2="275.8"/>
<line class="st2" x1="105.9" y1="204.9" x2="105.9" y2="142"/>
<line class="st2" x1="225.7" y1="50.6" x2="225.7" y2="272"/>
<path class="st2" d="M225.9,271.8c0,16.6-13.4,30-30,30c-16.6,0-30-13.4-30-30"/>
<path class="st2" d="M105.7,144.4c0-16.6,13.4-30,30-30s30,13.4,30,30"/>
<text transform="matrix(1 0 0 1 129.3476 53.5652)" class="st3 st4">.</text>
<text transform="matrix(1 0 0 1 129.3476 165.8695)" class="st5 st6">A</text>
<text transform="matrix(1 0 0 1 173.5565 275.8001)" class="st5 st6">B</text>
<text transform="matrix(1 0 0 1 188.913 273.913)" class="st7 st4">.</text>
<text transform="matrix(1 0 0 1 277.7391 77.6)" class="st8 st6">ceiling</text>
<g>
	<g>
		<line class="st9" x1="279.7" y1="67" x2="268.1" y2="57"/>
		<g>
			<path class="st10" d="M269.4,58.2l-0.7,4.2h-0.1l-3-5.6c-1.3-1.7-2.5-3.3-3.8-5c1.8,1,3.7,2,5.5,3l6,2l0.1,0.1L269.4,58.2z"/>
		</g>
	</g>
</g>
<rect x="178" y="342" class="st11" width="34.5" height="34.5"/>
<rect x="87" y="206" class="st11" width="34.5" height="34.5"/>
<linearGradient id="SVGID_1_" gradientUnits="userSpaceOnUse" x1="21" y1="-89.0352" x2="57.9215" y2="-89.0352" gradientTransform="matrix(0 1 -1 0 84.5215 -8.4)">
	<stop  offset="0.6304" style="stop-color:#FFFFFF"/>
	<stop  offset="1" style="stop-color:#000000"/>
</linearGradient>
<polygon class="st12" points="28,49.5 28,12.6 319.1,12.6 319.1,49.5 "/>
<line class="st0" x1="196.9" y1="344.9" x2="196.9" y2="274"/>
<text transform="matrix(1 0 0 1 219.3476 53.5652)" class="st3 st4">.</text>
<text transform="matrix(1 0 0 1 128.3476 144.5652)" class="st3 st4">.</text>
<text transform="matrix(1 0 0 1 98 232)" class="st8 st13">1</text>
<text transform="matrix(1 0 0 1 188.913 369)" class="st8 st13">2</text>
<g>
	<g>
		<line class="st14" x1="307" y1="223.2" x2="307" y2="292.3"/>
		<g>
			<path d="M307,290.5l3.6-2.2l0.1,0.1l-2.3,5.9c-0.5,2-0.9,4.1-1.4,6.1c-0.5-2-0.9-4.1-1.4-6.1l-2.3-5.9l0.1-0.1L307,290.5z"/>
		</g>
	</g>
</g>
<text transform="matrix(1 0 0 1 290 268)" class="st15 st13">g</text>
</svg>
