<?xml version="1.0" encoding="utf-8"?>
<!-- Generator: Adobe Illustrator 18.1.1, SVG Export Plug-In . SVG Version: 6.00 Build 0)  -->
<svg version="1.1" id="Layer_1" xmlns="http://www.w3.org/2000/svg" xmlns:xlink="http://www.w3.org/1999/xlink" x="0px" y="0px"
	 viewBox="70.1 182.1 472.8 377.2" enable-background="new 70.1 182.1 472.8 377.2" xml:space="preserve">
<circle opacity="0.3" fill="#D7D3CD" stroke="#000000" stroke-miterlimit="10" enable-background="new    " cx="177.4" cy="200.6" r="11.5"/>
<line fill="none" stroke="#000000" stroke-width="0.5" stroke-miterlimit="10" x1="70.1" y1="559.1" x2="492.8" y2="559.1"/>
<line fill="none" stroke="#000000" stroke-width="0.5" stroke-miterlimit="10" x1="96" y1="196.9" x2="112.5" y2="196.9"/>
<g>
	<g>
		<line fill="none" stroke="#000000" stroke-width="0.5" stroke-miterlimit="10" x1="104.5" y1="208.6" x2="104.5" y2="548.1"/>
		<g>
			<path d="M104.5,210.7l4.1,2.5V213l-2.8-6.6c-0.5-2.3-1.1-4.6-1.6-7.1c-0.5,2.3-1.1,4.6-1.6,7.1l-2.8,6.6v0.2L104.5,210.7z"/>
		</g>
		<g>
			<path d="M104.5,546l4.1-2.5v0.2l-2.8,6.6c-0.5,2.3-1.1,4.6-1.6,7.1c-0.5-2.3-1.1-4.6-1.6-7.1l-2.8-6.6v-0.2L104.5,546z"/>
		</g>
	</g>
</g>
<g>
	<g>
		<line fill="none" stroke="#000000" stroke-width="0.5" stroke-miterlimit="10" x1="391.3" y1="545.8" x2="391.3" y2="286.6"/>
		<g>
			<path d="M391.3,543.7l-4.1-2.5v0.2l2.8,6.6c0.5,2.3,1.1,4.6,1.6,7.1c0.5-2.3,1.1-4.6,1.6-7.1l2.8-6.6v-0.2L391.3,543.7z"/>
		</g>
		<g>
			<path d="M391.3,288.6l-4.1,2.5v-0.2l2.8-6.6c0.5-2.3,1.1-4.6,1.6-7.1c0.5,2.3,1.1,4.6,1.6,7.1l2.8,6.6v0.2L391.3,288.6z"/>
		</g>
	</g>
</g>
<line fill="none" stroke="#000000" stroke-width="0.5" stroke-miterlimit="10" x1="376.8" y1="275.3" x2="404.6" y2="275.3"/>
<g>
	<g>
		<line fill="none" stroke="#000000" stroke-width="0.5" stroke-miterlimit="10" x1="516.6" y1="416.1" x2="516.6" y2="475.2"/>
		<g>
			<path d="M516.6,473.1l4.1-2.5v0.2l-2.8,6.6c-0.5,2.3-1.1,4.6-1.6,7.1c-0.5-2.3-1.1-4.6-1.6-7.1l-2.8-6.6v-0.2L516.6,473.1z"/>
		</g>
	</g>
</g>
<text transform="matrix(1 0 0 1 526.9053 450.3276)" font-family="'STIXGeneral-BoldItalic'" font-size="32.0899">g</text>
<text transform="matrix(1 0 0 1 196.5928 205.1006)" font-family="'STIXGeneral-BoldItalic'" font-size="27.5056">m</text>
<ellipse fill="#FFFFFF" cx="104.3" cy="383.7" rx="8.3" ry="28.2"/>
<ellipse fill="#FFFFFF" cx="393.1" cy="411.2" rx="8.3" ry="28.2"/>
<text transform="matrix(1 0 0 1 95.9025 388.2978)" font-family="'STIXGeneral-BoldItalic'" font-size="32.0899">h</text>
<text transform="matrix(1 0 0 1 113.7441 398.9834)" font-family="'STIXGeneral-BoldItalic'" font-size="18.7084">i</text>
<text transform="matrix(1 0 0 1 384.0974 415.3526)" font-family="'STIXGeneral-BoldItalic'" font-size="32.0899">h</text>
<text transform="matrix(1 0 0 1 401.9395 426.039)" font-family="'STIXGeneral-BoldItalic'" font-size="18.7084">f</text>
</svg>
