<?xml version="1.0" encoding="utf-8"?>
<!-- Generator: Adobe Illustrator 19.2.1, SVG Export Plug-In . SVG Version: 6.00 Build 0)  -->
<svg version="1.1" id="Layer_1" xmlns="http://www.w3.org/2000/svg" xmlns:xlink="http://www.w3.org/1999/xlink" x="0px" y="0px"
	 viewBox="0 0 708 361" style="enable-background:new 0 0 708 361;" xml:space="preserve">
<style type="text/css">
	.st0{fill:none;stroke:#000000;stroke-width:3;stroke-miterlimit:10;}
	.st1{fill:url(#SVGID_1_);stroke:#000000;stroke-width:2;stroke-miterlimit:10;}
	.st2{fill:none;stroke:#000000;stroke-width:2;stroke-miterlimit:10;}
	.st3{font-family:'MyriadPro-Regular';}
	.st4{font-size:90px;}
	.st5{font-family:'TimesNewRomanPS-ItalicMT';}
	.st6{font-size:36px;}
	.st7{fill:url(#SVGID_2_);stroke:#000000;stroke-width:2;stroke-miterlimit:10;}
	.st8{fill:#010101;}
	.st9{font-family:'TimesNewRomanPS-BoldItalicMT';}
	.st10{font-size:25.125px;}
	.st11{fill:none;stroke:#DBDBDA;stroke-miterlimit:10;}
	.st12{font-family:'STIXGeneral-BoldItalic';}
	.st13{font-size:28px;}
	.st14{font-family:'STIXGeneral-Bold';}
	.st15{font-size:18px;}
	.st16{fill:none;stroke:#000000;stroke-width:0.7;stroke-miterlimit:10;}
	.st17{fill:none;stroke:#000000;stroke-width:0.5;stroke-miterlimit:10;stroke-dasharray:3,3;}
	.st18{font-family:'STIXGeneral-Regular';}
	.st19{font-size:24px;}
	.st20{font-size:16px;}
	.st21{fill:none;stroke:#000000;stroke-miterlimit:10;}
	.st22{font-size:14px;}
	.st23{font-size:23.04px;}
	.st24{font-size:16.08px;}
	.st25{font-size:20px;}
</style>
<circle class="st0" cx="245.1" cy="149.2" r="75"/>
<circle class="st0" cx="532.4" cy="149.2" r="75"/>
<radialGradient id="SVGID_1_" cx="58.8" cy="351.9429" r="10" gradientTransform="matrix(1 0 0 -0.7 0 395.56)" gradientUnits="userSpaceOnUse">
	<stop  offset="0" style="stop-color:#FFFFFF"/>
	<stop  offset="1" style="stop-color:#000000"/>
</radialGradient>
<circle class="st1" cx="58.8" cy="149.2" r="10"/>
<g>
	<g>
		<line class="st2" x1="58.8" y1="149.2" x2="108.8" y2="149.2"/>
		<g>
			<path d="M105.2,149.2l-4.4-7.2l0.2-0.2l11.8,4.7c4.1,0.9,8.2,1.8,12.3,2.7c-4.1,0.9-8.2,1.8-12.3,2.7l-11.8,4.7l-0.2-0.1
				L105.2,149.2z"/>
		</g>
	</g>
</g>
<text transform="matrix(1 0 0 1 236.2924 77.1798)" class="st3 st4">.</text>
<text transform="matrix(1 0 0 1 262.1025 64.2088)" class="st5 st6">P</text>
<text transform="matrix(1 0 0 1 539.732 64.209)" class="st5 st6">P</text>
<radialGradient id="SVGID_2_" cx="457.4" cy="351.9429" r="10" gradientTransform="matrix(1 0 0 -0.7 0 395.56)" gradientUnits="userSpaceOnUse">
	<stop  offset="0" style="stop-color:#FFFFFF"/>
	<stop  offset="1" style="stop-color:#000000"/>
</radialGradient>
<circle class="st7" cx="457.4" cy="149.2" r="10"/>
<polygon class="st8" points="84.9,103.2 85.6,101.3 75.2,101.3 75.2,100 85.6,100 84.9,98.2 89.9,100.7 "/>
<text transform="matrix(1 0 0 1 73.6709 122.4273)" class="st8 st9 st6">v</text>
<text transform="matrix(1 0 0 1 84.0146 133.5211)" class="st8 st5 st10">i</text>
<path class="st8" d="M628.1,45.7c-0.7,1.5-1.5,2.8-2.7,3.9c-1.1,1.1-2.4,2-4,2.7c-1.5,0.6-3.1,1-4.9,1c-1.7,0-3.4-0.3-4.9-1
	c-1.5-0.6-2.8-1.5-4-2.7c-1.1-1.1-2-2.4-2.7-3.9s-1-3.1-1-4.8s0.3-3.3,1-4.8c0.6-1.5,1.5-2.8,2.7-3.9c1.1-1.1,2.4-2,4-2.7
	c1.5-0.6,3.1-1,4.9-1c1.7,0,3.4,0.3,4.9,1c1.5,0.6,2.8,1.5,4,2.7c1.1,1.1,2,2.4,2.7,3.9c0.6,1.5,1,3.1,1,4.8S628.7,44.2,628.1,45.7z
	 M626.3,36.7c-0.6-1.3-1.3-2.4-2.2-3.3c-0.9-0.9-2.1-1.7-3.3-2.3c-1.3-0.6-2.6-0.8-4.1-0.8c-1.4,0-2.8,0.3-4.1,0.8
	c-1.3,0.6-2.4,1.3-3.3,2.3c-0.9,0.9-1.7,2.1-2.2,3.3c-0.6,1.3-0.8,2.6-0.8,4.1s0.3,2.8,0.8,4.1c0.6,1.3,1.3,2.4,2.2,3.3
	s2.1,1.7,3.3,2.2c1.3,0.6,2.6,0.8,4.1,0.8c1.4,0,2.8-0.3,4.1-0.8c1.3-0.6,2.4-1.3,3.3-2.2c0.9-0.9,1.7-2.1,2.2-3.3
	c0.6-1.3,0.8-2.6,0.8-4.1S626.8,38,626.3,36.7z M617.8,42.1c-0.4,0.3-0.8,0.5-1.3,0.5s-0.9-0.2-1.3-0.5c-0.3-0.3-0.5-0.8-0.5-1.3
	s0.2-0.9,0.5-1.3s0.8-0.5,1.3-0.5s0.9,0.2,1.3,0.5c0.4,0.4,0.5,0.8,0.5,1.3C618.4,41.3,618.2,41.7,617.8,42.1z"/>
<text transform="matrix(1 0 0 1 523.256 77.1797)" class="st3 st4">.</text>
<text transform="matrix(1 0 0 1 181.0558 148.4996)" class="st8 st5 st6">A</text>
<rect x="19" y="5" class="st11" width="332" height="248"/>
<text transform="matrix(1 0 0 1 48.8 181.4689)" class="st12 st13">m</text>
<text transform="matrix(1 0 0 1 174 224.2003)" class="st14 st15">1</text>
<text transform="matrix(1 0 0 1 154.8 214.4689)" class="st12 st13">m</text>
<text transform="matrix(1 0 0 1 68.8 188)" class="st14 st15">2</text>
<line class="st16" x1="245.1" y1="148.5" x2="300.1" y2="98.2"/>
<text transform="matrix(1 0 0 1 272.5921 141.8)" class="st12 st13">R</text>
<line class="st17" x1="103" y1="148.5" x2="167.1" y2="149.2"/>
<text transform="matrix(1 0 0 1 70 281.7578)" class="st14 st15">Initial State: </text>
<text transform="matrix(1 0 0 1 22 303.3578)" class="st14 st15">particle moving with     , ring at rest</text>
<text transform="matrix(1 0 0 1 236.5 303.3578)" class="st18 st15">.</text>
<rect x="356" y="5" class="st11" width="332" height="248"/>
<text transform="matrix(1 0 0 1 362 281)" class="st14 st15">Final State:</text>
<text transform="matrix(1 0 0 1 362 302.6)" class="st14 st15">particle and ring moving together with</text>
<g>
	<text transform="matrix(1 0 0 1 638.0817 43.9658)" class="st12 st19">ω</text>
	<text transform="matrix(1 0 0 1 652.6522 50.3296)" class="st12 st20">f</text>
	<g>
		<g>
			<line class="st21" x1="641.2" y1="29.4" x2="655" y2="29.4"/>
			<g>
				<polygon points="653,31.1 654.7,29.4 653,27.8 654.5,27.8 656.2,29.4 654.5,31.1 				"/>
			</g>
		</g>
	</g>
</g>
<rect x="19" y="258" class="st11" width="332" height="65"/>
<rect x="356" y="258" class="st11" width="332" height="65"/>
<g>
	<text transform="matrix(1 0 0 1 664.0817 301.9658)" class="st12 st19">ω</text>
	<text transform="matrix(1 0 0 1 678.6522 308.3296)" class="st12 st20">f</text>
	<g>
		<g>
			<line class="st21" x1="667.2" y1="287.4" x2="681" y2="287.4"/>
			<g>
				<polygon points="679,289.1 680.7,287.4 679,285.8 680.5,285.8 682.2,287.4 680.5,289.1 				"/>
			</g>
		</g>
	</g>
</g>
<path class="st11" d="M588,224.2"/>
<g>
	<g>
		<path class="st21" d="M597.1,227.6c10.5-6.3,20-15.6,25.6-26.6"/>
		<g>
			<path d="M621.9,202.5l-4.2,0.6V203l4.5-4.5c1.2-1.7,2.5-3.4,3.7-5.1c-0.4,2.1-0.8,4.1-1.2,6.2l-0.2,6.3l-0.1,0.1L621.9,202.5z"/>
		</g>
	</g>
</g>
<text transform="matrix(1 0 0 1 638.0817 64.209)" class="st18 st22">(out)</text>
<text transform="matrix(1 0 0 1 419.8 168.4689)" class="st12 st13">m</text>
<text transform="matrix(1 0 0 1 439.6709 177.9505)" class="st14 st15">2</text>
<polygon class="st8" points="194.8,292.8 195.2,291.5 188.6,291.5 188.6,290.7 195.2,290.7 194.8,289.6 198,291.2 "/>
<text transform="matrix(1 0 0 1 187.5923 305.0635)" class="st8 st9 st23">v</text>
<text transform="matrix(1 0 0 1 194.2124 312.1641)" class="st8 st5 st24">i</text>
<text transform="matrix(1 0 0 1 169 352)" class="st14 st25">Overhead View (gravity is into the screen)</text>
</svg>
