<?xml version="1.0" encoding="utf-8"?>
<!-- Generator: Adobe Illustrator 18.1.1, SVG Export Plug-In . SVG Version: 6.00 Build 0)  -->
<svg version="1.1" id="Layer_1" xmlns="http://www.w3.org/2000/svg" xmlns:xlink="http://www.w3.org/1999/xlink" x="0px" y="0px"
	 viewBox="10.8 269.4 593.2 251.5" enable-background="new 10.8 269.4 593.2 251.5" xml:space="preserve">
<rect x="30.4" y="425.5" opacity="0.5" fill="#D1D3D4" stroke="#C49A6C" stroke-width="0.7" stroke-miterlimit="10" enable-background="new    " width="90.6" height="90.6"/>
<rect x="48.9" y="372.4" opacity="0.5" fill="#D1D3D4" stroke="#C49A6C" stroke-width="0.7" stroke-miterlimit="10" enable-background="new    " width="53.2" height="53.2"/>
<text transform="matrix(1 0 0 1 52.006 386.6464)" font-family="'STIXGeneral-Bold'" font-size="18.1289">1</text>
<text transform="matrix(1 0 0 1 35.6168 442.0468)" font-family="'STIXGeneral-Bold'" font-size="18.1289">2</text>
<path fill="none" stroke="#000000" stroke-width="0.5" stroke-miterlimit="10" stroke-dasharray="3" d="M261.5,371.9"/>
<text transform="matrix(1 0 0 1 296.8593 403.6963)" font-family="'STIXGeneral-BoldItalic'" font-size="18.1289">m</text>
<text transform="matrix(1 0 0 1 310.9638 409.7334)" font-family="'STIXGeneral-Bold'" font-size="10.5691">1</text>
<text transform="matrix(1 0 0 1 296.86 479.7988)" font-family="'STIXGeneral-BoldItalic'" font-size="18.1289">m</text>
<text transform="matrix(1 0 0 1 310.9638 485.8369)" font-family="'STIXGeneral-Bold'" font-size="10.5691">2</text>
<circle cx="75.7" cy="471.6" r="3.8"/>
<circle stroke="#5E6770" stroke-width="0.5" stroke-miterlimit="10" cx="75.7" cy="398.9" r="3.8"/>
<line fill="none" stroke="#000000" stroke-width="0.5" stroke-miterlimit="10" stroke-dasharray="3" x1="285.4" y1="472.4" x2="285.4" y2="402.7"/>
<text transform="matrix(1 0 0 1 225.8549 300.9659)" font-family="'STIXGeneral-Bold'" font-size="15.1074">Replace them </text>
<text transform="matrix(1 0 0 1 225.8549 319.0949)" font-family="'STIXGeneral-Bold'" font-size="15.1074">by point particles </text>
<g>
	<g>
		<line fill="none" stroke="#000000" stroke-width="0.7" stroke-miterlimit="10" x1="124" y1="398.9" x2="93.4" y2="398.9"/>
		<g>
			<path d="M95.2,398.9l2.3,3.8v0.2l-6.2-2.4c-2.1-0.5-4.4-0.9-6.5-1.4c2.1-0.5,4.4-0.9,6.5-1.4l6.2-2.4h0.2L95.2,398.9z"/>
		</g>
	</g>
</g>
<text transform="matrix(1 0 0 1 129.1677 403.6952)" font-family="'STIXGeneral-Bold'" font-size="15.1074">CM of 1</text>
<g>
	<g>
		<line fill="none" stroke="#000000" stroke-width="0.7" stroke-miterlimit="10" x1="125.4" y1="471.5" x2="94.7" y2="471.5"/>
		<g>
			<path d="M96.7,471.5l2.3,3.8l-0.2,0.2l-6.2-2.4c-2.1-0.5-4.4-0.9-6.5-1.4c2.1-0.5,4.4-0.9,6.5-1.4l6.2-2.4H99L96.7,471.5z"/>
		</g>
	</g>
</g>
<text transform="matrix(1 0 0 1 132.1893 474.7013)" font-family="'STIXGeneral-Bold'" font-size="15.1074">CM of 2</text>
<text transform="matrix(1 0 0 1 280.9214 458.4609)" fill="#F04D25" font-family="'Arial-BoldMT'" font-size="15.1074">x</text>
<g>
	<g>
		<line fill="none" stroke="#000000" stroke-width="0.7" stroke-miterlimit="10" x1="368.6" y1="454.8" x2="300.2" y2="454.8"/>
		<g>
			<path d="M302.1,454.8l2.3,3.8l-0.2,0.2l-6.2-2.4c-2.1-0.5-4.4-0.9-6.5-1.4c2.1-0.5,4.4-0.9,6.5-1.4l6.2-2.4h0.2L302.1,454.8z"/>
		</g>
	</g>
</g>
<text transform="matrix(1 0 0 1 380.5575 459.3301)" font-family="'STIXGeneral-Bold'" font-size="15.1074">CM of the system</text>
<text transform="matrix(1 0 0 1 13.0297 310.0304)" font-family="'STIXGeneral-Bold'" font-size="15.1074">Two extended objects</text>
<text transform="matrix(1 0 0 1 428.2939 301.7213)" font-family="'STIXGeneral-Bold'" font-size="15.1074">Calculate the CM of the </text>
<text transform="matrix(1 0 0 1 428.2939 319.8503)" font-family="'STIXGeneral-Bold'" font-size="15.1074">system of point particles</text>
<rect x="11.3" y="269.9" opacity="0.5" fill="none" stroke="#B9A58F" stroke-miterlimit="10" enable-background="new    " width="592.2" height="65"/>
<g>
	<line fill="none" stroke="#000000" stroke-width="0.7" stroke-miterlimit="10" x1="361.8" y1="304.1" x2="406.8" y2="304.1"/>
	<line fill="none" stroke="#000000" stroke-width="0.7" stroke-miterlimit="10" x1="361.8" y1="307.7" x2="406.8" y2="307.7"/>
	<line fill="none" stroke="#000000" stroke-width="0.7" stroke-miterlimit="10" x1="404" y1="301.4" x2="414.7" y2="305.9"/>
	<line fill="none" stroke="#000000" stroke-width="0.7" stroke-miterlimit="10" x1="404" y1="310.4" x2="414.7" y2="305.9"/>
</g>
<g>
	<line fill="none" stroke="#000000" stroke-width="0.7" stroke-miterlimit="10" x1="156.4" y1="304.4" x2="201.4" y2="304.4"/>
	<line fill="none" stroke="#000000" stroke-width="0.7" stroke-miterlimit="10" x1="156.4" y1="308" x2="201.4" y2="308"/>
	<line fill="none" stroke="#000000" stroke-width="0.7" stroke-miterlimit="10" x1="198.5" y1="301.7" x2="209.2" y2="306.2"/>
	<line fill="none" stroke="#000000" stroke-width="0.7" stroke-miterlimit="10" x1="198.5" y1="310.7" x2="209.2" y2="306.2"/>
</g>
<g>
	<path fill="none" stroke="#000000" stroke-width="0.5" stroke-miterlimit="10" d="M594.6,421.9"/>
</g>
<path fill="none" stroke="#000000" stroke-width="0.7" stroke-miterlimit="10" d="M603.5,438.7"/>
<g>
	<path fill="none" stroke="#000000" stroke-width="0.7" stroke-miterlimit="10" d="M545.8,458.5"/>
</g>
<path fill="none" stroke="#000000" stroke-width="0.5" stroke-miterlimit="10" stroke-dasharray="3" d="M275.1,482.2"/>
<circle cx="285.7" cy="474.6" r="3.8"/>
<circle stroke="#5E6770" stroke-width="0.5" stroke-miterlimit="10" cx="285.7" cy="402" r="3.8"/>
<text transform="matrix(1 0 0 1 257.5808 510.0138)" font-family="'STIXGeneral-BoldItalic'" font-size="18.1289">m</text>
<text transform="matrix(1 0 0 1 271.6851 516.0517)" font-family="'STIXGeneral-Bold'" font-size="10.5691">2 </text>
<text transform="matrix(1 0 0 1 279.6119 510.0138)" font-family="'STIXGeneral-Bold'" font-size="18.1289">= 2 </text>
<text transform="matrix(1 0 0 1 311.3369 510.0138)" font-family="'STIXGeneral-BoldItalic'" font-size="18.1289">m</text>
<text transform="matrix(1 0 0 1 325.4413 516.0517)" font-family="'STIXGeneral-Bold'" font-size="10.5691">1</text>
</svg>
