<?xml version="1.0" encoding="utf-8"?>
<!-- Generator: Adobe Illustrator 19.2.1, SVG Export Plug-In . SVG Version: 6.00 Build 0)  -->
<svg version="1.1" id="Layer_1" xmlns="http://www.w3.org/2000/svg" xmlns:xlink="http://www.w3.org/1999/xlink" x="0px" y="0px"
	 viewBox="0 0 300 300" style="enable-background:new 0 0 300 300;" xml:space="preserve">
<style type="text/css">
	.st0{opacity:0.6;fill:#DBD4CE;stroke:#929393;stroke-miterlimit:10;enable-background:new    ;}
	.st1{opacity:0.6;fill:none;stroke:#807D7D;stroke-width:2;stroke-miterlimit:10;}
	.st2{fill:none;stroke:#2E3192;stroke-width:1.2;stroke-miterlimit:10;}
	.st3{opacity:0.4;fill:url(#SVGID_1_);enable-background:new    ;}
	.st4{opacity:0.6;fill:#DBD4CE;stroke:#B9AAAD;stroke-miterlimit:10;enable-background:new    ;}
	.st5{fill:#FBF7F4;stroke:#B3ABA3;stroke-miterlimit:10;}
	.st6{opacity:0.6;fill:#FBF7F4;stroke:#807D7D;stroke-width:2;stroke-miterlimit:10;}
	.st7{fill:#A8AAAD;stroke:#010101;stroke-width:0.3;stroke-miterlimit:10;}
	.st8{fill:#010101;}
	.st9{font-family:'STIXGeneral-Bold';}
	.st10{font-size:12px;}
	.st11{font-size:10px;}
	.st12{fill:none;stroke:#010101;stroke-miterlimit:10;}
	.st13{fill:none;stroke:#A08380;stroke-width:1.5;stroke-miterlimit:10;}
</style>
<rect x="88.8" y="220.7" class="st0" width="51.8" height="6"/>
<path class="st1" d="M144.9,183c1.5,16.4,2,15.7,1.2,36.1c-1,25.1-3.1,25.1-0.6,58.4"/>
<g>
	<ellipse class="st2" cx="122.7" cy="172.1" rx="5.7" ry="9.4"/>
	<line class="st2" x1="122.7" y1="181.6" x2="122.7" y2="217.1"/>
	<line class="st2" x1="122.7" y1="218.4" x2="106.8" y2="227.6"/>
	<line class="st2" x1="107.3" y1="228.2" x2="105.4" y2="245.2"/>
	<line class="st2" x1="105.4" y1="245.2" x2="98.3" y2="248.1"/>
	<line class="st2" x1="135.8" y1="221.7" x2="122.7" y2="218.4"/>
	<line class="st2" x1="135.8" y1="221.7" x2="138.3" y2="247.1"/>
	<line class="st2" x1="138.3" y1="247.1" x2="145.2" y2="249.9"/>
	<line class="st2" x1="123.2" y1="194.9" x2="131.5" y2="200.5"/>
	<line class="st2" x1="130.7" y1="200.7" x2="146.3" y2="183"/>
	<line class="st2" x1="121.7" y1="195.8" x2="116.9" y2="205"/>
	<line class="st2" x1="117.3" y1="204.7" x2="146.2" y2="181.8"/>
</g>
<linearGradient id="SVGID_1_" gradientUnits="userSpaceOnUse" x1="206.25" y1="170.4333" x2="230" y2="170.4333" gradientTransform="matrix(-1 0 0 1 500.25 -35.3333)">
	<stop  offset="0" style="stop-color:#FFFFFF"/>
	<stop  offset="1" style="stop-color:#010101"/>
</linearGradient>
<polygon class="st3" points="270.2,23.1 294,23.1 294,247.1 270.2,247.1 "/>
<rect x="25" y="35.6" class="st4" width="245.2" height="15"/>
<g>
	<circle class="st5" cx="115.1" cy="139.6" r="10"/>
	<path class="st6" d="M125.1,139.6c0,5.5-4.5,10-10,10s-10-4.5-10-10"/>
</g>
<g>
	<circle class="st5" cx="135.1" cy="94.5" r="10"/>
	<path class="st6" d="M125.1,94.5c0-5.5,4.5-10,10-10s10,4.5,10,10"/>
</g>
<line class="st1" x1="145.1" y1="94.5" x2="145.1" y2="183"/>
<line class="st1" x1="125.1" y1="93.9" x2="125.1" y2="142.1"/>
<line class="st1" x1="105.1" y1="50.6" x2="105.1" y2="139.8"/>
<rect x="135.1" y="50.4" class="st7" width="2" height="42"/>
<text transform="matrix(1 0 0 1 43.4984 188.3519)" class="st8 st9 st10">rope A</text>
<text transform="matrix(1 0 0 1 186.326 127.6999)" class="st8 st9 st10">rope B</text>
<text transform="matrix(1 0 0 1 147.5884 92.4001)" class="st8 st9 st11">pulley 2</text>
<g>
	<g>
		<path class="st12" d="M83.9,188.7c13.3-2.8,14.2,10,20.9,15.7"/>
		<g>
			<path class="st8" d="M103.4,203.2l-0.6-4.2h0.1l4.5,4.4c1.7,1.2,3.4,2.4,5.2,3.6c-2.1-0.4-4.1-0.7-6.2-1.1l-6.3-0.1l-0.1-0.1
				L103.4,203.2z"/>
		</g>
	</g>
</g>
<g>
	<g>
		<path class="st12" d="M181,124.8c-16.6-3.6-16.2,14.7-26.2,19.9"/>
		<g>
			<path class="st8" d="M156.2,144.1l2.3,3.1l-0.1,0.1l-5-1c-1.7,0-3.4,0-5.1,0c1.5-0.9,3-1.7,4.6-2.6l4.2-3.5h0.1L156.2,144.1z"/>
		</g>
	</g>
</g>
<text transform="matrix(1 0 0 1 6 226.6867)" class="st8 st9 st10">platform</text>
<text transform="matrix(1 0 0 1 167.8972 46.1666)" class="st8 st9 st10">Beam</text>
<g>
	<g>
		<line class="st12" x1="57.1" y1="224.3" x2="78.9" y2="224.3"/>
		<g>
			<path class="st8" d="M77.1,224.3l-2.2-3.6l0.1-0.1l5.9,2.3c2,0.5,4.1,0.9,6.1,1.4c-2,0.5-4.1,0.9-6.1,1.4l-5.9,2.3l-0.1-0.1
				L77.1,224.3z"/>
		</g>
	</g>
</g>
<text transform="matrix(1 0 0 1 70.0114 142.1344)" class="st8 st9 st11">pulley 1</text>
<line class="st13" x1="115.1" y1="150.6" x2="115.1" y2="219.7"/>
</svg>
