<?xml version="1.0" encoding="utf-8"?>
<!-- Generator: Adobe Illustrator 19.2.1, SVG Export Plug-In . SVG Version: 6.00 Build 0)  -->
<svg version="1.1" id="Layer_1" xmlns="http://www.w3.org/2000/svg" xmlns:xlink="http://www.w3.org/1999/xlink" x="0px" y="0px"
	 viewBox="0 0 237.7 159.2" style="enable-background:new 0 0 237.7 159.2;" xml:space="preserve">
<style type="text/css">
	.st0{opacity:0.6;fill:#EBE6E5;stroke:#58595B;stroke-miterlimit:10;enable-background:new    ;}
	.st1{opacity:0.4;fill:#EBE6E5;stroke:#808285;stroke-miterlimit:10;enable-background:new    ;}
	.st2{opacity:0.8;fill:url(#SVGID_1_);enable-background:new    ;}
	.st3{fill:none;stroke:#808285;stroke-miterlimit:10;}
	.st4{font-family:'STIXGeneral-Bold';}
	.st5{font-size:12px;}
	.st6{font-family:'STIXGeneral-BoldItalic';}
	.st7{font-size:18px;}
	.st8{fill:none;stroke:#000000;stroke-miterlimit:10;}
	.st9{font-size:14px;}
</style>
<rect x="80.7" y="74.3" class="st0" width="90.1" height="59.6"/>
<rect x="99.8" y="30.8" class="st1" width="53.4" height="43.5"/>
<linearGradient id="SVGID_1_" gradientUnits="userSpaceOnUse" x1="33.8565" y1="66.0103" x2="43.8565" y2="66.0103" gradientTransform="matrix(4.489659e-11 -1 -1 -4.489659e-11 190.9103 178.8027)">
	<stop  offset="0" style="stop-color:#FFFFFF"/>
	<stop  offset="1" style="stop-color:#585741"/>
</linearGradient>
<polygon class="st2" points="224.9,134.9 224.9,144.9 24.9,144.9 24.9,134.9 "/>
<line class="st3" x1="24.9" y1="134.9" x2="224.9" y2="134.9"/>
<text transform="matrix(1 0 0 1 124.8565 108.5202)" class="st4 st5">1</text>
<text transform="matrix(1 0 0 1 124.2335 53.0358)" class="st4 st5">2</text>
<text transform="matrix(1 0 0 1 41.7036 100.8251)" class="st6 st7">F</text>
<g>
	<g>
		<line class="st8" x1="12.1" y1="109.6" x2="70.3" y2="109.6"/>
		<g>
			<path d="M68.5,109.6l-2.2-3.6l0.1-0.1l5.9,2.3c2,0.5,4.1,0.9,6.1,1.4c-2,0.5-4.1,0.9-6.1,1.4l-5.9,2.3l-0.1-0.1L68.5,109.6z"/>
		</g>
	</g>
</g>
<g>
	<g>
		<path class="st8" d="M57.2,44.2c10.3,0,18.3,14.6,28.1,23"/>
		<g>
			<path d="M83.9,66l0.2-4.2h0.1l3.6,5.2c1.4,1.5,2.9,3,4.3,4.6c-1.9-0.8-3.9-1.5-5.8-2.3L80.1,68L80,67.9L83.9,66z"/>
		</g>
	</g>
</g>
<g>
	<text transform="matrix(1 0 0 1 41.6006 40.8313)" class="st6 st9">μ</text>
	<text transform="matrix(1 0 0 1 48.9824 44.2258)" class="st6 st5">s</text>
</g>
<g>
	<g>
		<path class="st8" d="M70.2,138.4c-11.6,6.2-21.1,17-33.3,17"/>
		<g>
			<path d="M63.9,137.9l0.1-0.1l7.4-1c2.3-0.6,4.6-1.1,6.9-1.7c-1.7,1.2-3.4,2.3-5.1,3.4l-4.3,3.8h-0.1l-0.2-3.1L63.9,137.9z"/>
		</g>
	</g>
</g>
<g>
	<text transform="matrix(1 0 0 1 21.209 153.7286)" class="st6 st9">μ</text>
	<text transform="matrix(1 0 0 1 28.5908 157.1231)" class="st6 st5">k</text>
</g>
</svg>
