<?xml version="1.0" encoding="utf-8"?>
<!-- Generator: Adobe Illustrator 19.2.1, SVG Export Plug-In . SVG Version: 6.00 Build 0)  -->
<svg version="1.1" id="Layer_1" xmlns="http://www.w3.org/2000/svg" xmlns:xlink="http://www.w3.org/1999/xlink" x="0px" y="0px"
	 viewBox="0 0 240 117.2" style="enable-background:new 0 0 240 117.2;" xml:space="preserve">
<style type="text/css">
	.st0{opacity:0.1;fill:#EAE1CA;stroke:#000000;stroke-width:0.5;stroke-miterlimit:10;enable-background:new    ;}
	.st1{font-family:'STIXGeneral-BoldItalic';}
	.st2{font-size:12px;}
	.st3{fill:none;stroke:#000000;stroke-width:0.5;stroke-miterlimit:10;}
	.st4{font-family:'ArialMT';}
	.st5{font-size:4px;}
	.st6{opacity:0.7;fill:#EAE1CA;stroke:#000000;stroke-width:0.5;stroke-miterlimit:10;enable-background:new    ;}
	.st7{fill:none;stroke:#010101;stroke-width:0.5;stroke-miterlimit:10;}
	.st8{fill:#010101;}
	.st9{font-size:6px;}
	.st10{fill:none;stroke:#231F20;stroke-width:0.5;stroke-miterlimit:10;}
	.st11{fill:#231F20;}
	.st12{font-size:8px;}
	.st13{fill:none;stroke:#000000;stroke-width:0.4;stroke-miterlimit:10;}
	.st14{fill:none;stroke:#000000;stroke-width:0.1;stroke-miterlimit:10;}
	.st15{font-size:7px;}
	.st16{fill:none;stroke:#231F20;stroke-width:0.7;stroke-miterlimit:10;}
	.st17{fill:none;stroke:#DBDBDA;stroke-width:0.7;stroke-miterlimit:10;}
	.st18{font-family:'STIXGeneral-Bold';}
</style>
<path d="M28.4,127.9"/>
<rect x="45.2" y="26" class="st0" width="3" height="70"/>
<g>
	<text transform="matrix(1 0 0 1 62.5476 13.9867)" class="st1 st2">ω</text>
	<g>
		<g>
			<line class="st3" x1="64.8" y1="6.2" x2="70.3" y2="6.2"/>
			<g>
				<polygon points="69.3,7.2 70.1,6.2 69.3,5.4 70,5.4 70.8,6.2 70,7.2 				"/>
			</g>
		</g>
	</g>
</g>
<text transform="matrix(1 0 0 1 45.7143 61.9854)" class="st4 st5">x</text>
<g>
	<rect x="56.2" y="22.9" transform="matrix(0.9397 -0.342 0.342 0.9397 -16.3239 23.2192)" class="st6" width="3" height="70"/>
	<text transform="matrix(1 0 0 1 56.7144 58.9856)" class="st4 st5">x</text>
</g>
<g>
	<circle class="st7" cx="76.2" cy="11.2" r="2.2"/>
	<circle class="st8" cx="76.2" cy="11.2" r="1.2"/>
</g>
<text transform="matrix(1 0 0 1 36 62.9833)" class="st1 st9">cm</text>
<circle class="st8" cx="46.6" cy="27.4" r="1.2"/>
<g>
	<g>
		<path class="st10" d="M49.7,61.2c1.5,0.2,3.1,0,4.5-0.6"/>
		<g>
			<path class="st11" d="M53.4,61l-1.8-1v-0.1l3.1-0.4c1-0.3,2-0.6,3-0.9c-0.8,0.7-1.6,1.4-2.3,2.1l-2,2.5h-0.1L53.4,61z"/>
		</g>
	</g>
</g>
<text transform="matrix(1 0 0 1 41.3614 23.0499)" class="st1 st12">S</text>
<g>
	<g>
		<line class="st13" x1="57.6" y1="57.9" x2="72.4" y2="52.6"/>
		<g>
			<path d="M71.7,52.9l-1.3-1.1l0,0l2.5,0.1c0.8-0.1,1.7-0.2,2.5-0.3c-0.7,0.4-1.4,0.9-2.1,1.3l-1.9,1.7h-0.1L71.7,52.9z"/>
		</g>
	</g>
</g>
<g>
	<g>
		<text transform="matrix(1 0 0 1 82.4757 53.1247)" class="st1 st9">cm</text>
		<text transform="matrix(1 0 0 1 77.8091 51.5081)" class="st1 st2">v</text>
	</g>
	<g>
		<g>
			<line class="st3" x1="77.5" y1="44.5" x2="82.9" y2="44.5"/>
			<g>
				<polygon points="81.9,45.4 82.8,44.5 81.9,43.7 82.7,43.7 83.5,44.5 82.7,45.4 				"/>
			</g>
		</g>
	</g>
</g>
<g>
	<text transform="matrix(1 0 0 1 192.2143 13.7367)" class="st1 st2">ω</text>
	<g>
		<g>
			<line class="st3" x1="194.5" y1="6" x2="200" y2="6"/>
			<g>
				<polygon points="199,6.9 199.8,6 199,5.2 199.7,5.2 200.5,6 199.7,6.9 				"/>
			</g>
		</g>
	</g>
</g>
<g>
	<g>
		<path class="st13" d="M169.6,13.3c1.3-1.7,3.6-3.1,6.2-3.1c4.1,0,7.3,3.3,7.3,6.2"/>
		<g>
			<path d="M170.1,12.7l-1-1.4l0,0l-0.1,2.5c-0.2,0.8-0.3,1.6-0.5,2.5c0.5-0.7,1-1.4,1.5-2l1.8-1.8v-0.1L170.1,12.7z"/>
		</g>
	</g>
</g>
<g>
	<g>
		<path class="st14" d="M326.9,57.7"/>
	</g>
</g>
<g>
	<g>
		<line class="st3" x1="171.2" y1="57.7" x2="185.1" y2="57.7"/>
		<g>
			<path d="M184.2,57.7l-1.1-1.8h0.1l2.9,1.2c1,0.2,2,0.5,3.1,0.7c-1,0.2-2,0.5-3.1,0.7l-2.9,1.2h-0.1L184.2,57.7z"/>
		</g>
	</g>
</g>
<rect x="165.9" y="22.7" transform="matrix(0.9397 -0.342 0.342 0.9397 -9.6389 60.7305)" class="st6" width="3" height="70"/>
<g>
	<g>
		<text transform="matrix(1 0 0 1 183.2144 52.6521)" class="st1 st9">cm</text>
		<text transform="matrix(1 0 0 1 179.5478 51.0355)" class="st1 st2">v</text>
	</g>
	<g>
		<g>
			<line class="st3" x1="179.2" y1="44" x2="184.6" y2="44"/>
			<g>
				<polygon points="183.6,44.9 184.5,44 183.6,43.2 184.4,43.2 185.2,44 184.4,44.9 				"/>
			</g>
		</g>
	</g>
</g>
<text transform="matrix(1 0 0 1 166.3811 58.7356)" class="st4 st5">x</text>
<g>
	<circle class="st7" cx="205.9" cy="11" r="2.2"/>
	<circle class="st8" cx="205.9" cy="11" r="1.2"/>
</g>
<text transform="matrix(1 0 0 1 210.5038 97.2225)" class="st11 st4 st15">x</text>
<text transform="matrix(1 0 0 1 216.2177 95.9503)" class="st11 st1 st12">S</text>
<text transform="matrix(1 0 0 1 156.3505 58.5499)" class="st1 st9">cm</text>
<g>
	<g>
		<path class="st13" d="M37.6,13.3c1.3-1.7,3.6-3.1,6.2-3.1c4.1,0,7.3,3.3,7.3,6.2"/>
		<g>
			<path d="M38.1,12.7l-1-1.4l0,0L37,13.8c-0.2,0.8-0.3,1.6-0.5,2.5c0.5-0.7,1-1.4,1.5-2l1.8-1.8v-0.1L38.1,12.7z"/>
		</g>
	</g>
</g>
<g>
	<g>
		<line class="st16" x1="213" y1="95.9" x2="172.2" y2="61.4"/>
		<g>
			<path class="st11" d="M173.1,62.2l-0.5,2.9h-0.1l-2.1-3.9c-0.9-1.2-1.8-2.3-2.7-3.5c1.3,0.7,2.6,1.4,3.9,2.1l4.2,1.4v0.1
				L173.1,62.2z"/>
		</g>
	</g>
</g>
<rect x="128.2" y="23" class="st0" width="3" height="70"/>
<g>
	<g>
		<text transform="matrix(1 0 0 1 204.7144 81.5491)" class="st1 st9">cm</text>
		<text transform="matrix(1 0 0 1 201.0478 79.9325)" class="st1 st2">r</text>
	</g>
	<g>
		<g>
			<line class="st3" x1="200.7" y1="72.9" x2="206.1" y2="72.9"/>
			<g>
				<polygon points="205.1,73.8 206,72.9 205.1,72.1 205.9,72.1 206.7,72.9 205.9,73.8 				"/>
			</g>
		</g>
	</g>
</g>
<rect x="4.7" y="3" class="st17" width="115.3" height="99"/>
<rect x="121.7" y="3" class="st17" width="115.3" height="99"/>
<rect x="4.7" y="103.6" class="st17" width="115.3" height="10"/>
<rect x="121.7" y="103.6" class="st17" width="115.3" height="10"/>
<text transform="matrix(1 0 0 1 27.3335 110.917)" class="st18 st9">Fixed axis rotation</text>
<text transform="matrix(1 0 0 1 147.0003 110.917)" class="st18 st9">Translation and Rotation</text>
</svg>
