<?xml version="1.0" encoding="utf-8"?>
<!-- Generator: Adobe Illustrator 18.1.1, SVG Export Plug-In . SVG Version: 6.00 Build 0)  -->
<svg version="1.1" id="Layer_1" xmlns="http://www.w3.org/2000/svg" xmlns:xlink="http://www.w3.org/1999/xlink" x="0px" y="0px"
	 viewBox="0 0 518.9 142.3" enable-background="new 0 0 518.9 142.3" xml:space="preserve">
<rect x="64.9" y="40.5" fill="#C591C1" stroke="#000000" stroke-width="3" stroke-miterlimit="10" width="79.7" height="50"/>
<line fill="none" stroke="#000000" stroke-width="3" stroke-miterlimit="10" x1="52.7" y1="90.5" x2="506.8" y2="90.5"/>
<rect x="260.8" y="55.4" fill="#CDE07B" stroke="#000000" stroke-width="3" stroke-miterlimit="10" width="50" height="35.1"/>
<text transform="matrix(1 0 0 1 103.2299 72.9728)" font-family="'TimesNewRomanPSMT'" font-size="24">1</text>
<text transform="matrix(1 0 0 1 281.0052 81.2321)" font-family="'TimesNewRomanPSMT'" font-size="24">2</text>
<line fill="none" stroke="#000000" stroke-miterlimit="10" x1="336.5" y1="65.5" x2="336.5" y2="109.5"/>
<line fill="none" stroke="#000000" stroke-miterlimit="10" x1="452.7" y1="63.4" x2="452.7" y2="110.1"/>
<text transform="matrix(0.9701 0 -0.2425 0.9701 371.9935 26.5719)" fill="#010101" font-family="'Symbol'" font-size="24.7386">µ</text>
<text transform="matrix(1 0 0 1 386.5938 32.5929)" fill="#010101" font-family="'Times-Italic'" font-size="13.875">k</text>
<text transform="matrix(1 0 0 1 395.6562 26.5929)" fill="#010101" font-family="'Times-Roman'" font-size="24">(</text>
<text transform="matrix(1 0 0 1 405.0312 26.5929)" fill="#010101" font-family="'Times-Italic'" font-size="24">x</text>
<text transform="matrix(1 0 0 1 416.9062 26.5929)" fill="#010101" font-family="'Times-Roman'" font-size="24">)</text>
<text transform="matrix(1 0 0 1 429.3438 26.5929)" fill="#010101" font-family="'Symbol'" font-size="24">=</text>
<text transform="matrix(1 0 0 1 447.7812 26.5929)" fill="#010101" font-family="'Times-Italic'" font-size="24">b</text>
<text transform="matrix(1 0 0 1 459.7812 26.5929)" fill="#010101" font-family="'Times-Italic'" font-size="24">x</text>
<text transform="matrix(1 0 0 1 471.9062 15.8429)" fill="#010101" font-family="'Times-Roman'" font-size="13.875">2</text>
<g>
	<g>
		<path fill="none" stroke="#000000" stroke-width="1.5" stroke-miterlimit="10" d="M397.3,44.6c-4.4,3.7-9.7,9-14.9,16.2
			c-2.2,3.1-4.1,6.2-5.7,9.2"/>
		<g>
			<path d="M378,67.6l6.3-0.6l0,0.2l-7,6.4c-1.9,2.5-3.9,5-5.8,7.4c0.7-3.1,1.4-6.1,2.1-9.2l0.6-9.5l0.2-0.1L378,67.6z"/>
		</g>
	</g>
</g>
<text transform="matrix(1 0 0 1 316.099 129.7297)" fill="#010101" font-family="'Times-Italic'" font-size="24">x</text>
<text transform="matrix(1 0 0 1 332.5365 129.7297)" fill="#010101" font-family="'Symbol'" font-size="24">=</text>
<text transform="matrix(1 0 0 1 351.474 129.7297)" fill="#010101" font-family="'Times-Roman'" font-size="24">0</text>
<text transform="matrix(1 0 0 1 430.0938 129.7297)" fill="#010101" font-family="'Times-Italic'" font-size="24">x</text>
<text transform="matrix(1 0 0 1 446.5312 129.7297)" fill="#010101" font-family="'Symbol'" font-size="24">=</text>
<text transform="matrix(1 0 0 1 465.4688 129.7297)" fill="#010101" font-family="'Times-Italic'" font-size="24">d</text>
<text transform="matrix(1 0 0 1 484.625 81.0811)" fill="#010101" font-family="'Symbol'" font-size="24">+</text>
<text transform="matrix(1 0 0 1 500 81.0811)" fill="#010101" font-family="'Times-Italic'" font-size="24">x</text>
<g>
	<g>
		<line fill="none" stroke="#000000" stroke-width="1.5" stroke-miterlimit="10" x1="144.6" y1="65.5" x2="175.6" y2="65.5"/>
		<g>
			<path d="M172.9,65.5l-3.3-5.4l0.2-0.1l8.8,3.5c3.1,0.7,6.1,1.4,9.2,2c-3.1,0.7-6.1,1.4-9.2,2l-8.8,3.5l-0.2-0.1L172.9,65.5z"/>
		</g>
	</g>
</g>
<g>
	<g>
		<line fill="none" stroke="#000000" stroke-width="1.5" stroke-miterlimit="10" x1="260.8" y1="65.5" x2="229.8" y2="65.5"/>
		<g>
			<path d="M232.5,65.5l3.3,5.4l-0.2,0.1l-8.8-3.5c-3.1-0.7-6.1-1.4-9.2-2c3.1-0.7,6.1-1.4,9.2-2l8.8-3.5l0.2,0.1L232.5,65.5z"/>
		</g>
	</g>
</g>
<text transform="matrix(1 0 0 1 160.9975 48.8052)" fill="#010101" font-family="'Times-Italic'" font-size="24">v</text>
<text transform="matrix(1 0 0 1 171.435 54.8052)" fill="#010101" font-family="'Times-Roman'" font-size="13.875">0</text>
<text transform="matrix(1 0 0 1 217.5672 48.8053)" fill="#010101" font-family="'Times-Italic'" font-size="24">v</text>
<text transform="matrix(1 0 0 1 228.0047 54.8053)" fill="#010101" font-family="'Times-Roman'" font-size="13.875">0</text>
<g>
	<g>
		<path fill="none" stroke="#000000" stroke-width="1.5" stroke-miterlimit="10" d="M121.6,117.6c6.8-0.6,16.3-2.3,27-6.8
			c5.6-2.3,10.4-5,14.5-7.6"/>
		<g>
			<path d="M160.8,104.6l-5.8-2.5l0.1-0.2l9.2-2.3c2.9-1.2,5.8-2.5,8.7-3.7c-2.1,2.3-4.2,4.7-6.3,7l-5.1,8l-0.2,0L160.8,104.6z"/>
		</g>
	</g>
</g>
<text transform="matrix(1 0 0 1 6.7567 132.4324)" font-family="'TimesNewRomanPSMT'" font-size="24">frictionless</text>
</svg>
