<?xml version="1.0" encoding="utf-8"?>
<!-- Generator: Adobe Illustrator 19.2.1, SVG Export Plug-In . SVG Version: 6.00 Build 0)  -->
<svg version="1.1" id="Layer_1" xmlns="http://www.w3.org/2000/svg" xmlns:xlink="http://www.w3.org/1999/xlink" x="0px" y="0px"
	 viewBox="0 0 409 291" style="enable-background:new 0 0 409 291;" xml:space="preserve">
<style type="text/css">
	.st0{fill:url(#SVGID_1_);}
	.st1{font-family:'STIXGeneral-BoldItalic';}
	.st2{font-size:26px;}
	.st3{fill:url(#SVGID_2_);}
	.st4{fill:none;stroke:#000000;stroke-width:1.6;stroke-miterlimit:10;}
	.st5{opacity:0.5;fill:none;stroke:#000000;stroke-miterlimit:10;stroke-dasharray:3;}
	.st6{font-family:'STIXGeneral-Bold';}
	.st7{font-size:16px;}
	.st8{fill:none;stroke:#231F20;stroke-miterlimit:10;}
	.st9{fill:#231F20;}
	.st10{fill:none;stroke:#000000;stroke-miterlimit:10;stroke-dasharray:3;}
	.st11{fill:#010101;}
	.st12{font-size:24px;}
	.st13{fill:none;stroke:#000000;stroke-miterlimit:10;}
	.st14{font-size:18px;}
	.st15{opacity:0.6;fill:none;stroke:#000000;stroke-miterlimit:10;stroke-dasharray:12;}
	.st16{font-size:28px;}
	.st17{font-size:25px;}
	.st18{fill:none;stroke:#000000;stroke-miterlimit:10;stroke-dasharray:3,3;}
</style>
<radialGradient id="SVGID_1_" cx="329.0373" cy="156.35" r="8.0065" gradientTransform="matrix(1 0 0 -1 0 254)" gradientUnits="userSpaceOnUse">
	<stop  offset="0" style="stop-color:#FFFFFF"/>
	<stop  offset="1" style="stop-color:#000000"/>
</radialGradient>
<circle class="st0" cx="329" cy="97.6" r="8"/>
<circle cx="238.5" cy="124" r="4"/>
<text transform="matrix(1 0 0 1 344.0006 97.5999)" class="st1 st2">m</text>
<radialGradient id="SVGID_2_" cx="139.0373" cy="108.35" r="8.0065" gradientTransform="matrix(1 0 0 -1 0 254)" gradientUnits="userSpaceOnUse">
	<stop  offset="0" style="stop-color:#FFFFFF"/>
	<stop  offset="1" style="stop-color:#000000"/>
</radialGradient>
<circle class="st3" cx="139" cy="145.6" r="8"/>
<g>
	<g>
		<line class="st4" x1="146" y1="148.6" x2="201" y2="154.9"/>
		<g>
			<path d="M198.2,154.6l-2.8-6.1l0.2-0.1l8.9,4.8c3.2,1.1,6.3,2.2,9.5,3.3c-3.3,0.3-6.7,0.7-10,1l-9.8,2.6l-0.2-0.1L198.2,154.6z"
				/>
		</g>
	</g>
</g>
<g>
	<g>
		<line class="st4" x1="321" y1="98.4" x2="272" y2="93"/>
		<g>
			<path d="M274.8,93.3l2.9,6.1l-0.2,0.1l-8.9-4.7c-3.2-1.1-6.4-2.1-9.5-3.2c3.3-0.4,6.7-0.7,10-1.1l9.8-2.7l0.2,0.1L274.8,93.3z"/>
		</g>
	</g>
</g>
<line class="st5" x1="139" y1="146.6" x2="329" y2="100.6"/>
<text transform="matrix(1 0 0 1 137 132)" class="st6 st7">2</text>
<g>
	<text transform="matrix(1 0 0 1 300.5 89.5999)" class="st6 st7">1</text>
	<g>
		<text transform="matrix(1 0 0 1 296.5 76.5999)" class="st1 st2">p</text>
		<g>
			<g>
				<line class="st8" x1="295" y1="60.2" x2="308.9" y2="60.2"/>
				<g>
					<polygon class="st9" points="306.9,61.9 308.6,60.2 306.9,58.5 308.3,58.5 310,60.2 308.3,61.9 					"/>
				</g>
			</g>
		</g>
	</g>
</g>
<g>
	<g>
		<text transform="matrix(1 0 0 1 162.7 171.6997)" class="st1 st2">p</text>
		<g>
			<g>
				<line class="st8" x1="161.2" y1="155.3" x2="175.1" y2="155.3"/>
				<g>
					<polygon class="st9" points="173.1,157 174.8,155.3 173.1,153.6 174.5,153.6 176.2,155.3 174.5,157 					"/>
				</g>
			</g>
		</g>
	</g>
	<text transform="matrix(1 0 0 1 166.7 184.6997)" class="st6 st7">2</text>
</g>
<text transform="matrix(1 0 0 1 103.0103 155.3132)" class="st1 st2">m</text>
<text transform="matrix(1 0 0 1 329 86.5998)" class="st6 st7">1</text>
<g>
	<line class="st10" x1="238.7" y1="125" x2="238.7" y2="224.2"/>
	<text transform="matrix(1 0 0 1 217.4001 218.9888)" class="st11 st1 st12">S</text>
	<text transform="matrix(1 0 0 1 247.0176 180.9995)" class="st1 st2">h</text>
	<g>
		<g>
			<line class="st13" x1="186.1" y1="243" x2="237.6" y2="224.6"/>
			<g>
				<path d="M187.8,242.4l0.9-4.1l-0.1,0l-4.7,4.2c-1.8,1.1-3.6,2.2-5.3,3.3c2.1-0.3,4.2-0.5,6.2-0.8l6.3,0.2l0.1-0.1L187.8,242.4z"
					/>
			</g>
		</g>
	</g>
	<g>
		<g>
			<line class="st13" x1="238.7" y1="224.2" x2="296.1" y2="230.2"/>
			<g>
				<path d="M294.3,230l-1.8-3.8l0.1-0.1l5.6,2.9c2,0.7,4,1.3,6,2c-2.1,0.2-4.2,0.5-6.2,0.7l-6.1,1.7l-0.1-0.1L294.3,230z"/>
			</g>
		</g>
	</g>
	<g>
		<g>
			<line class="st13" x1="238.7" y1="224.2" x2="238.7" y2="173.2"/>
			<g>
				<path d="M238.7,174.9l-3.6,2.2L235,177l2.3-5.9c0.5-2,0.9-4.1,1.4-6.1c0.5,2,0.9,4.1,1.4,6.1l2.3,5.9l-0.1,0.1L238.7,174.9z"/>
			</g>
		</g>
	</g>
	<circle cx="237.7" cy="225" r="4"/>
	<text transform="matrix(1 0 0 1 176.2 257.9996)" class="st1 st14">+x</text>
	<text transform="matrix(1 0 0 1 301.2 242.9996)" class="st1 st14">+y</text>
	<text transform="matrix(1 0 0 1 217.4 180.9996)" class="st1 st14">+z</text>
</g>
<path class="st15" d="M231.2,94c82.3,0,149.1,10.7,149.1,26.3s-66.8,30.3-149.1,30.3S82.1,139.9,82.1,124.3S148.9,94,231.2,94z"/>
<g>
	<g>
		<line class="st8" x1="110" y1="75" x2="110" y2="36.2"/>
		<g>
			<path class="st9" d="M110,37.9l-3.6,2.2l-0.1-0.1l2.3-5.9c0.5-2,0.9-4.1,1.4-6.1c0.5,2,0.9,4.1,1.4,6.1l2.3,5.9l-0.1,0.1
				L110,37.9z"/>
		</g>
	</g>
</g>
<g>
	<text transform="matrix(1 0 0 1 18.6 49.9438)" class="st1 st16">ω</text>
	<text transform="matrix(1 0 0 1 62.6 49.8312)" class="st1 st16">ω</text>
	<g>
		<g>
			<line class="st8" x1="23.6" y1="32.9" x2="37.5" y2="32.9"/>
			<g>
				<polygon class="st9" points="35.5,34.6 37.2,32.9 35.5,31.2 37,31.2 38.6,32.9 37,34.6 				"/>
			</g>
		</g>
	</g>
	<g>
		<line class="st8" x1="43.6" y1="47.9" x2="55.6" y2="47.9"/>
		<line class="st8" x1="43.6" y1="42.9" x2="55.6" y2="42.9"/>
	</g>
	<text transform="matrix(1 0 0 1 80.6 54.8312)" class="st1 st14">z</text>
</g>
<g>
	<line class="st4" x1="89.5" y1="34" x2="95.5" y2="26"/>
	<line class="st4" x1="102.1" y1="34" x2="96.1" y2="26"/>
</g>
<text transform="matrix(1 0 0 1 90 51.9438)" class="st1 st17">k</text>
<line class="st18" x1="290.4" y1="204.2" x2="127.8" y2="266.2"/>
<line class="st18" x1="344" y1="235.2" x2="141" y2="214.9"/>
</svg>
