<?xml version="1.0" encoding="utf-8"?>
<!-- Generator: Adobe Illustrator 19.2.1, SVG Export Plug-In . SVG Version: 6.00 Build 0)  -->
<svg version="1.1" id="mod1_x5F_lp_x5F_fig012-Page_x25_201"
	 xmlns="http://www.w3.org/2000/svg" xmlns:xlink="http://www.w3.org/1999/xlink" x="0px" y="0px" viewBox="0 0 734 165"
	 style="enable-background:new 0 0 734 165;" xml:space="preserve">
<style type="text/css">
	.st0{fill:none;}
	.st1{opacity:0.5;fill:#EAE6E6;stroke:#231F20;enable-background:new    ;}
	.st2{fill:#F0ECEC;stroke:#9B9B8C;}
	.st3{enable-background:new    ;}
	.st4{font-family:'ArialMT';}
	.st5{font-size:12px;}
	.st6{fill:none;stroke:#000000;stroke-width:2;}
	.st7{fill:none;stroke:#9B9B8C;}
	.st8{font-family:'MyriadPro-Regular';}
	.st9{font-size:24px;}
	.st10{font-family:'STIXGeneral-BoldItalic';}
	.st11{font-size:18px;}
	.st12{fill:none;stroke:#231F20;stroke-miterlimit:10;}
	.st13{fill:none;stroke:#231F20;stroke-width:1.5;stroke-miterlimit:10;}
	.st14{fill:none;stroke:#231F20;stroke-width:0.7;stroke-miterlimit:10;}
	.st15{fill:#231F20;}
	.st16{fill:none;stroke:#C6B6B2;stroke-miterlimit:10;}
	.st17{font-family:'STIXGeneral-Bold';}
	.st18{fill:none;stroke:#231F20;stroke-width:0.7;}
	.st19{fill:none;stroke:#231F20;stroke-width:1.4;}
</style>
<path class="st0" d="M20-73"/>
<path class="st1" d="M79,63l94,40l138,57H79V63z"/>
<path class="st2" d="M133,61.4L165.2,76L156,95.6L123.7,81L133,61.4z"/>
<path id="SVGID_x5F_1_x5F__1_" class="st0" d="M45.5,162.5h294"/>
<text transform="matrix(1 0 0 1 30 -75)" class="st4 st5">   </text>
<text transform="matrix(1 0 0 1 228.9119 162.5)" class="st4 st5"> </text>
<text transform="matrix(1 0 0 1 232.2459 162.5)" class="st4 st5"> </text>
<text transform="matrix(1 0 0 1 235.5799 162.5)" class="st4 st5"> </text>
<text transform="matrix(1 0 0 1 238.9138 162.5)" class="st4 st5"> </text>
<text transform="matrix(1 0 0 1 30 -75)" class="st4 st5"> </text>
<path class="st6" d="M141.5,77L141.5,77L141.5,77"/>
<text transform="matrix(1 0 0 1 20 -73)" class="st4 st5">   </text>
<text transform="matrix(1 0 0 1 20 -73)" class="st4 st5"> </text>
<path class="st6" d="M141,80L141,80L141,80"/>
<path class="st7" d="M238,131c-9,11-11,12-11.8,29"/>
<path id="Line8" class="st7" d="M115.5,61.5l-13-7"/>
<path id="Line9" class="st7" d="M118.5,67.5l-13-7"/>
<path id="Line10" class="st7" d="M125.5,61.5l-13-7"/>
<path d="M366,196"/>
<text transform="matrix(1 0 0 1 238 157)" class="st8 st9">θ</text>
<text transform="matrix(1 0 0 1 137 82)" class="st10 st11">m</text>
<path class="st2" d="M303.4,155.9l15.6-31.2l4.6,3.2l-14.6,32.3L303.4,155.9z"/>
<g>
	<g>
		<g>
			<g>
				<g>
					<line class="st12" x1="291.4" y1="143.5" x2="292.6" y2="135.3"/>
					<line class="st12" x1="292.6" y1="135.3" x2="287.2" y2="141.6"/>
				</g>
				<g>
					<line class="st12" x1="295.5" y1="145.4" x2="296.7" y2="137.2"/>
					<line class="st12" x1="296.8" y1="137.2" x2="291.4" y2="143.5"/>
				</g>
			</g>
			<g>
				<g>
					<line class="st12" x1="283" y1="139.7" x2="284.3" y2="131.5"/>
					<line class="st12" x1="284.3" y1="131.5" x2="278.9" y2="137.8"/>
				</g>
				<g>
					<line class="st12" x1="287.2" y1="141.6" x2="288.4" y2="133.4"/>
					<line class="st12" x1="288.5" y1="133.4" x2="283" y2="139.7"/>
				</g>
			</g>
		</g>
		<g>
			<g>
				<g>
					<line class="st12" x1="274.7" y1="135.9" x2="275.9" y2="127.7"/>
					<line class="st12" x1="276" y1="127.7" x2="270.6" y2="134"/>
				</g>
				<g>
					<line class="st12" x1="278.9" y1="137.8" x2="280.1" y2="129.6"/>
					<line class="st12" x1="280.2" y1="129.6" x2="274.7" y2="135.9"/>
				</g>
			</g>
			<g>
				<g>
					<line class="st12" x1="266.4" y1="132.1" x2="267.6" y2="123.9"/>
					<line class="st12" x1="267.7" y1="123.9" x2="262.3" y2="130.2"/>
				</g>
				<g>
					<line class="st12" x1="270.6" y1="134" x2="271.8" y2="125.8"/>
					<line class="st12" x1="271.9" y1="125.8" x2="266.4" y2="132.1"/>
				</g>
			</g>
		</g>
	</g>
	<line class="st12" x1="262.3" y1="130.2" x2="262.9" y2="125.4"/>
	<line class="st12" x1="295.4" y1="145.3" x2="298.6" y2="141.7"/>
	<g>
		<g>
			<line class="st13" x1="298.6" y1="141.7" x2="309" y2="146.5"/>
		</g>
	</g>
	<g>
		<g>
			<line class="st13" x1="254.4" y1="121.5" x2="262.9" y2="125.4"/>
		</g>
	</g>
</g>
<g>
	<g>
		<line class="st14" x1="30" y1="81" x2="30" y2="127.2"/>
		<g>
			<path class="st15" d="M30,125.9l2.5-1.5l0.1,0.1l-1.6,4.1c-0.3,1.4-0.6,2.9-0.9,4.3c-0.3-1.4-0.6-2.9-0.9-4.3l-1.6-4.1l0-0.1
				L30,125.9z"/>
		</g>
	</g>
</g>
<text transform="matrix(1 0 0 1 14 111.5)" class="st10 st11">g</text>
<path class="st0" d="M404-88"/>
<path class="st1" d="M457,63.5l94,40l138,57H457V63.5z"/>
<path class="st2" d="M547,76.9l32.2,14.6l-9.2,19.6l-32.3-14.6L547,76.9z"/>
<path id="SVGID_x5F_1_x5F__2_" class="st0" d="M423.5,163h294"/>
<text transform="matrix(1 0 0 1 414 -90)" class="st4 st5">   </text>
<text transform="matrix(1 0 0 1 606.9119 163)" class="st4 st5"> </text>
<text transform="matrix(1 0 0 1 610.2458 163)" class="st4 st5"> </text>
<text transform="matrix(1 0 0 1 613.5798 163)" class="st4 st5"> </text>
<text transform="matrix(1 0 0 1 616.9138 163)" class="st4 st5"> </text>
<text transform="matrix(1 0 0 1 414 -90)" class="st4 st5"> </text>
<path class="st6" d="M519.5,77.5L519.5,77.5L519.5,77.5"/>
<text transform="matrix(1 0 0 1 404 -88)" class="st4 st5">   </text>
<text transform="matrix(1 0 0 1 404 -88)" class="st4 st5"> </text>
<path class="st6" d="M519,80.5L519,80.5L519,80.5"/>
<path class="st7" d="M616,131.5c-9,11-11,12-11.8,29"/>
<path id="Line8_1_" class="st7" d="M596.5,110l-13-7"/>
<path id="Line9_1_" class="st7" d="M591.5,104l-13-7"/>
<path id="Line10_1_" class="st7" d="M589.5,111l-13-7"/>
<path d="M719,181"/>
<text transform="matrix(1 0 0 1 616 157.5)" class="st8 st9">θ</text>
<text transform="matrix(1 0 0 1 552 97.5)" class="st10 st11">m</text>
<path class="st2" d="M681.3,156.4l15.6-31.2l4.6,3.2L687,160.8L681.3,156.4z"/>
<g>
	<g>
		<g>
			<g>
				<g>
					<line class="st12" x1="669.4" y1="144" x2="670.6" y2="135.8"/>
					<line class="st12" x1="670.6" y1="135.8" x2="665.2" y2="142.1"/>
				</g>
				<g>
					<line class="st12" x1="673.5" y1="145.9" x2="674.7" y2="137.7"/>
					<line class="st12" x1="674.8" y1="137.7" x2="669.4" y2="144"/>
				</g>
			</g>
			<g>
				<g>
					<line class="st12" x1="661" y1="140.2" x2="662.3" y2="132"/>
					<line class="st12" x1="662.3" y1="132" x2="656.9" y2="138.3"/>
				</g>
				<g>
					<line class="st12" x1="665.2" y1="142.1" x2="666.4" y2="133.9"/>
					<line class="st12" x1="666.5" y1="133.9" x2="661" y2="140.2"/>
				</g>
			</g>
		</g>
		<g>
			<g>
				<g>
					<line class="st12" x1="652.7" y1="136.4" x2="653.9" y2="128.2"/>
					<line class="st12" x1="654" y1="128.2" x2="648.6" y2="134.5"/>
				</g>
				<g>
					<line class="st12" x1="656.9" y1="138.3" x2="658.1" y2="130.1"/>
					<line class="st12" x1="658.2" y1="130.1" x2="652.7" y2="136.4"/>
				</g>
			</g>
			<g>
				<g>
					<line class="st12" x1="644.4" y1="132.6" x2="645.6" y2="124.4"/>
					<line class="st12" x1="645.7" y1="124.4" x2="640.3" y2="130.7"/>
				</g>
				<g>
					<line class="st12" x1="648.6" y1="134.5" x2="649.8" y2="126.3"/>
					<line class="st12" x1="649.9" y1="126.3" x2="644.4" y2="132.6"/>
				</g>
			</g>
		</g>
	</g>
	<line class="st12" x1="640.3" y1="130.7" x2="640.9" y2="125.9"/>
	<line class="st12" x1="673.4" y1="145.8" x2="676.6" y2="142.2"/>
	<g>
		<g>
			<line class="st13" x1="676.6" y1="142.2" x2="687" y2="147"/>
		</g>
	</g>
	<g>
		<g>
			<line class="st13" x1="632.4" y1="122" x2="640.9" y2="125.9"/>
		</g>
	</g>
</g>
<g>
	<g>
		<line class="st14" x1="408" y1="81.5" x2="408" y2="127.7"/>
		<g>
			<path class="st15" d="M408,126.4l2.5-1.5l0.1,0.1l-1.6,4.1c-0.3,1.4-0.6,2.9-0.9,4.3c-0.3-1.4-0.6-2.9-0.9-4.3l-1.6-4.1l0-0.1
				L408,126.4z"/>
		</g>
	</g>
</g>
<text transform="matrix(1 0 0 1 392 112)" class="st10 st11">g</text>
<rect x="7" y="6" class="st16" width="357" height="159"/>
<rect x="370" y="6" class="st16" width="357" height="159"/>
<text transform="matrix(1 0 0 1 137 24)" class="st17 st11">Sliding down</text>
<text transform="matrix(1 0 0 1 517 24)" class="st17 st11">Sliding up</text>
<g>
	<g>
		<line class="st18" x1="253" y1="63" x2="301" y2="83.7"/>
		<g>
			<path class="st15" d="M299.8,83.2l-0.4-2.9l0.1,0l3.1,3.1c1.2,0.9,2.4,1.7,3.6,2.6c-1.4-0.3-2.9-0.6-4.3-0.8l-4.4-0.1l-0.1-0.1
				L299.8,83.2z"/>
		</g>
	</g>
</g>
<g>
	<g>
		<line class="st18" x1="612" y1="63" x2="660" y2="83.7"/>
		<g>
			<path class="st15" d="M658.8,83.2l-0.4-2.9l0.1,0l3.1,3.1c1.2,0.9,2.4,1.7,3.6,2.6c-1.4-0.3-2.9-0.6-4.3-0.8l-4.4-0.1l-0.1-0.1
				L658.8,83.2z"/>
		</g>
	</g>
</g>
<line class="st0" x1="20" y1="61.4" x2="30" y2="50"/>
<g>
	<text transform="matrix(1 0 0 1 672.5 78)" class="st17 st11">i</text>
	<g>
		<line class="st19" x1="680" y1="65.7" x2="675" y2="57.7"/>
		<line class="st19" x1="670" y1="65.7" x2="675" y2="57.7"/>
	</g>
</g>
<g>
	<text transform="matrix(1 0 0 1 312.5 78)" class="st17 st11">i</text>
	<g>
		<line class="st19" x1="320" y1="65.7" x2="315" y2="57.7"/>
		<line class="st19" x1="310" y1="65.7" x2="315" y2="57.7"/>
	</g>
</g>
</svg>
