<?xml version="1.0" encoding="utf-8"?>
<!-- Generator: Adobe Illustrator 20.0.0, SVG Export Plug-In . SVG Version: 6.00 Build 0)  -->
<svg version="1.1" id="Layer_1" xmlns="http://www.w3.org/2000/svg" xmlns:xlink="http://www.w3.org/1999/xlink" x="0px" y="0px"
	 viewBox="0 0 290 289.3" style="enable-background:new 0 0 290 289.3;" xml:space="preserve">
<style type="text/css">
	.st0{fill:none;stroke:#000000;stroke-width:0.7;stroke-miterlimit:10;stroke-dasharray:12;}
	.st1{fill:none;stroke:#EE2A53;stroke-miterlimit:10;}
	.st2{fill:#EE2A53;}
	.st3{fill:none;stroke:#000000;stroke-width:0.5;stroke-miterlimit:10;}
	.st4{fill:#010101;}
	.st5{font-family:'Symbol';}
	.st6{font-size:20px;}
	.st7{font-family:'TimesNewRomanPS-ItalicMT';}
	.st8{fill:#DF2526;}
	.st9{fill:#ED1C24;}
	.st10{font-family:'TimesNewRomanPS-BoldMT';}
	.st11{font-size:22px;}
	.st12{fill:#EE2B4D;}
	.st13{fill:#FFFFFF;stroke:#000000;stroke-width:0.7;stroke-miterlimit:10;}
	.st14{fill:#1F150B;}
	.st15{fill:none;stroke:#010101;stroke-width:0.7;stroke-miterlimit:10;}
	.st16{font-family:'TimesNewRomanPSMT';}
	.st17{font-size:24px;}
	.st18{font-size:18px;}
	.st19{fill:none;stroke:#231F20;stroke-miterlimit:10;}
	.st20{fill:#231F20;}
</style>
<path class="st0" d="M226.7,153c0,55.2-44.8,100-100,100s-100-44.8-100-100c0-57.9,44.8-100,100-100S226.7,97.8,226.7,153z"/>
<g>
	<g>
		<line class="st1" x1="191.1" y1="84.6" x2="128.6" y2="152.4"/>
		<g>
			<path class="st2" d="M185.8,85.1L185.8,85.1l5.7-2.8c1.8-1.2,3.5-2.4,5.2-3.6c-1.1,1.8-2.1,3.6-3.2,5.4l-2.3,5.9h-0.1l-1.2-4.1
				L185.8,85.1z"/>
		</g>
	</g>
</g>
<g>
	<g>
		<line class="st3" x1="5.3" y1="152.4" x2="244.5" y2="152.4"/>
		<g>
			<path d="M243.6,152.4l-1.1-1.8h0.1l2.9,1.2c1,0.2,2,0.5,3.1,0.7c-1,0.2-2,0.5-3.1,0.7l-2.9,1.2h-0.1L243.6,152.4z"/>
		</g>
	</g>
</g>
<path class="st4" d="M163.7,129.1c0.7-0.4,1.5-0.7,2.3-0.7s1.5,0.2,1.9,0.7s0.9,1,1.2,1.5s0.4,1.1,0.5,1.6c0.1,0.6,0.1,1.1,0.1,1.5
	c0,0.6-0.1,1-0.2,1.5c-0.1,0.6-0.2,1.1-0.3,1.4c-0.1,0.5-0.3,1.1-0.5,1.7c-0.2,0.6-0.4,1.2-0.7,1.7c-0.3,0.6-0.6,1.3-1,1.9
	c-0.3,0.5-0.8,1.1-1.5,1.7c-0.6,0.6-1.3,1-2,1.3s-1.3,0.4-1.9,0.4c-0.6,0-1.1-0.1-1.6-0.4c-0.6-0.3-1-0.7-1.4-1.4
	c-0.4-0.6-0.6-1.3-0.6-1.9c-0.1-0.6-0.1-1.2,0-1.8c0-0.5,0.1-1.1,0.2-1.7c0.1-0.6,0.2-1.1,0.4-1.7c0.1-0.3,0.2-0.7,0.4-1.3
	c0.1-0.4,0.3-0.9,0.6-1.4c0.3-0.6,0.6-1.2,0.8-1.6c0.3-0.5,0.8-1,1.3-1.5C162.4,130.1,163,129.6,163.7,129.1L163.7,129.1z
	 M165.2,141.6c0.4-0.7,0.6-1.3,0.7-1.7l0.8-2.5h-5.8l-0.5,2.5c-0.1,0.4-0.2,1-0.1,1.7c0,0.7,0.1,1.2,0.3,1.7s0.4,0.8,0.6,0.9
	c0.2,0.2,0.5,0.3,0.7,0.3c0.3,0,0.6-0.1,0.9-0.3c0.3-0.1,0.6-0.4,1.1-0.9C164.3,143,164.8,142.4,165.2,141.6L165.2,141.6z
	 M162.7,132.2c-0.4,0.6-0.6,1.2-0.8,1.8l-0.7,2.3h5.8l0.4-2.3c0.1-0.5,0.2-1.1,0.2-1.8c-0.1-0.7-0.1-1.2-0.2-1.5
	c-0.1-0.4-0.3-0.7-0.6-1s-0.6-0.4-0.9-0.4c-0.4,0-0.8,0.1-1.2,0.4s-0.8,0.6-1,1C163.3,131.1,163,131.5,162.7,132.2L162.7,132.2z"/>
<g>
	<g>
		<line class="st3" x1="126.5" y1="255.3" x2="127.9" y2="41.9"/>
		<g>
			<path d="M127.9,42.8l-1.8,1.1v-0.1l1.2-2.9c0.2-1,0.5-2,0.7-3.1c0.2,1,0.4,2,0.7,3.1l1.1,2.9v0.1L127.9,42.8z"/>
		</g>
	</g>
</g>
<text transform="matrix(1 0 0 1 240.4557 169.7183)" class="st4 st5 st6">+</text>
<text transform="matrix(1 0 0 1 253.9695 169.7184)" class="st4 st7 st6">x</text>
<text transform="matrix(1 0 0 1 99.8821 41.6851)" class="st4 st5 st6">+</text>
<text transform="matrix(1 0 0 1 114.5696 41.6851)" class="st4 st7 st6">y</text>
<g>
	<polygon class="st8" points="171.3,86.4 171.7,85.2 164.8,85.2 164.8,84.3 171.7,84.3 171.3,83 174.6,84.7 	"/>
	<text transform="matrix(1 0 0 1 164.8375 97.0483)" class="st9 st10 st11">r</text>
</g>
<circle class="st12" cx="196.7" cy="79.7" r="3.5"/>
<g>
	<circle class="st13" cx="232.9" cy="63.4" r="4.7"/>
	<circle class="st14" cx="232.9" cy="63.4" r="1.6"/>
</g>
<g>
	<g>
		<path class="st15" d="M171.2,115.9c10.3,6.1,20,24.7,20,35.8"/>
		<g>
			<path class="st4" d="M172.3,116.6l2.4-1.8l-0.1-0.1h-4.4c-1.4-0.2-2.9-0.5-4.3-0.7c1.2,0.8,2.4,1.6,3.6,2.5l3.2,3h0.1
				L172.3,116.6z"/>
		</g>
	</g>
</g>
<g>
	<path d="M179.1,25.4c0.4-0.3,0.9-0.5,1.5-0.5s1,0.2,1.5,0.5c0.4,0.3,0.8,0.7,1.1,1.1s0.5,0.7,0.6,1.1c0.2,0.4,0.3,0.7,0.3,1.1
		c0.1,0.4,0.1,0.7,0.1,1c0,0.4,0,0.7,0,0.9c0,0.4,0,0.7,0,1.2c0,0.4-0.1,0.8-0.2,1.2c-0.1,0.4-0.2,0.9-0.4,1.3
		c-0.1,0.4-0.4,0.8-0.7,1.2s-0.7,0.7-1.1,0.9c-0.4,0.2-0.8,0.3-1.2,0.3s-0.8-0.1-1.2-0.3s-0.8-0.5-1.2-0.9s-0.6-0.9-0.8-1.3
		c-0.2-0.4-0.3-0.8-0.3-1.2c-0.1-0.4-0.1-0.8-0.2-1.2c0-0.4,0-0.8,0-1.2c0-0.2,0-0.5,0-0.9c0-0.3,0.1-0.6,0.2-1
		c0.1-0.4,0.2-0.8,0.3-1.1c0.2-0.3,0.4-0.7,0.6-1.1C178.3,26.1,178.7,25.7,179.1,25.4L179.1,25.4z M178.9,27.5
		c-0.1,0.4-0.2,0.8-0.2,1.2l-0.1,1.6h4l-0.1-1.6c0-0.3-0.1-0.7-0.2-1.2c-0.2-0.5-0.3-0.8-0.4-1c-0.2-0.3-0.3-0.5-0.6-0.7
		c-0.2-0.2-0.5-0.3-0.7-0.3c-0.3,0-0.5,0.1-0.7,0.3c-0.2,0.2-0.4,0.4-0.5,0.7C179.2,26.7,179,27.1,178.9,27.5L178.9,27.5z M182.3,34
		c0.1-0.5,0.2-0.9,0.2-1.2l0.1-1.7h-4l0.1,1.7c0,0.3,0.1,0.7,0.2,1.2c0.1,0.5,0.3,0.8,0.5,1.2c0.2,0.3,0.4,0.5,0.6,0.6
		c0.2,0.1,0.4,0.2,0.6,0.2c0.2,0,0.4-0.1,0.6-0.2c0.2-0.1,0.3-0.3,0.6-0.6C181.9,34.9,182.1,34.6,182.3,34L182.3,34z"/>
	<text transform="matrix(1 0 0 1 176.9422 36.6914)" class="st16 st17">ˆ</text>
</g>
<g>
	<text transform="matrix(1 0 0 1 245.2851 29.4242)" class="st10 st6">r</text>
	<text transform="matrix(1 0 0 1 245.8155 30.8229)" class="st16 st17">ˆ</text>
</g>
<g>
	<text transform="matrix(1 0 0 1 240.4558 64.9332)" class="st16 st17">ˆ</text>
	<text transform="matrix(1 0 0 1 239.4554 66.382)" class="st10 st18">k</text>
</g>
<g>
	<g>
		<line class="st19" x1="216.9" y1="61" x2="238" y2="38.3"/>
		<g>
			<path class="st20" d="M236.8,39.6l-4.1-0.8v-0.1l5.7-2.7c1.7-1.2,3.4-2.4,5.2-3.6c-1.1,1.8-2.1,3.6-3.2,5.4l-2.3,5.9H238
				L236.8,39.6z"/>
		</g>
	</g>
</g>
<g>
	<g>
		<line class="st19" x1="216.2" y1="61" x2="195.8" y2="42.1"/>
		<g>
			<path class="st20" d="M197.1,43.3l-0.8,4.1h-0.1l-2.7-5.7c-1.2-1.7-2.4-3.4-3.6-5.2c1.8,1.1,3.6,2.1,5.4,3.2l5.9,2.3v0.1
				L197.1,43.3z"/>
		</g>
	</g>
</g>
</svg>
